<svg xmlns="http://www.w3.org/2000/svg" xmlns:xlink="http://www.w3.org/1999/xlink" width="7000" zoomAndPan="magnify" viewBox="0 0 5250 1874.999927" height="2500" preserveAspectRatio="xMidYMid meet" version="1.0"><defs><filter x="0%" y="0%" width="100%" height="100%" id="c1a16db8af"><feColorMatrix values="0 0 0 0 1 0 0 0 0 1 0 0 0 0 1 0 0 0 1 0" color-interpolation-filters="sRGB"/></filter><g/><mask id="6d2645862e"><g filter="url(#c1a16db8af)"><rect x="-525" width="6300" fill="#000000" y="-187.499993" height="2249.999912" fill-opacity="0.6"/></g></mask><clipPath id="a8c78c2ed0"><path d="M 0 19 L 5250 19 L 5250 1759 L 0 1759 Z M 0 19 " clip-rule="nonzero"/></clipPath><clipPath id="32a462b7b6"><path d="M 200 0.398438 L 5250 0.398438 L 5250 1779 L 200 1779 Z M 200 0.398438 " clip-rule="nonzero"/></clipPath><clipPath id="611bc981eb"><path d="M 955 407 L 5250 407 L 5250 1533 L 955 1533 Z M 955 407 " clip-rule="nonzero"/></clipPath><clipPath id="ffe7666c0f"><path d="M 2741 312 L 5250 312 L 5250 1725 L 2741 1725 Z M 2741 312 " clip-rule="nonzero"/></clipPath><clipPath id="a630d3da80"><path d="M 3997 531 L 5250 531 L 5250 1109 L 3997 1109 Z M 3997 531 " clip-rule="nonzero"/></clipPath><clipPath id="ec21757306"><rect x="0" width="5250" y="0" height="1862"/></clipPath><clipPath id="1684cb2951"><path d="M 763 636.21875 L 1818 636.21875 L 1818 1243.71875 L 763 1243.71875 Z M 763 636.21875 " clip-rule="nonzero"/></clipPath></defs><g mask="url(#6d2645862e)"><g transform="matrix(1, 0, 0, 1, 0, 8)"><g clip-path="url(#ec21757306)"><g clip-path="url(#a8c78c2ed0)"><path fill="#ffffff" d="M -207.824219 817.917969 C 1.867188 760.703125 208.226562 704.648438 382.421875 657.367188 C 480.53125 630.644531 578.878906 603.894531 666.285156 580.121094 C 839.128906 533.09375 1274.867188 433.410156 1279.253906 432.402344 L 1280.441406 432.132812 L 1280.730469 433.320312 L 1433.660156 1069.257812 L 3409.789062 1754.246094 L 3170.515625 692.609375 L 3614.359375 748.367188 L 4545.90625 19.582031 L 4546.449219 19.6875 L 5336.171875 167.796875 L 5335.71875 170.214844 L 4546.550781 22.210938 L 3615.046875 750.921875 L 3614.539062 750.859375 L 3173.65625 695.480469 L 3413.125 1758.003906 L 3411.035156 1757.28125 L 1431.539062 1071.136719 L 1431.390625 1070.488281 L 1278.59375 435.078125 C 1253.136719 440.910156 835.265625 536.6875 666.914062 582.496094 C 579.507812 606.269531 481.160156 633.019531 383.054688 659.742188 C 208.859375 707.023438 2.5 763.078125 -207.179688 820.292969 Z M -207.824219 817.917969 " fill-opacity="1" fill-rule="nonzero"/></g><path fill="#ffffff" d="M 121.511719 573.355469 L 122.007812 570.953125 C 191.980469 585.140625 262.539062 599.671875 330.769531 613.738281 C 369.648438 621.75 408.558594 629.773438 447.617188 637.785156 L 447.933594 637.84375 L 448.171875 638.054688 L 813.652344 953.972656 L 812.136719 954.828125 L 127.972656 1343.078125 L 126.757812 1340.945312 L 809.417969 953.550781 L 446.820312 640.128906 C 407.867188 632.148438 369.0625 624.140625 330.289062 616.160156 C 262.042969 602.09375 191.484375 587.558594 121.527344 573.371094 Z M 121.511719 573.355469 " fill-opacity="1" fill-rule="nonzero"/><path fill="#ffffff" d="M 194.398438 982.949219 L 1256.832031 927.445312 L 1186.09375 1377.34375 L 810.617188 954.589844 L 812.242188 953.144531 L 194.519531 985.410156 L 194.386719 982.960938 Z M 1253.917969 930.0625 L 812.601562 953.117188 L 1184.46875 1371.8125 Z M 1253.917969 930.0625 " fill-opacity="1" fill-rule="nonzero"/><path fill="#ffffff" d="M 1407.101562 1223.941406 L 1683.875 939.921875 L 1685.640625 941.644531 L 1408.867188 1225.660156 Z M 1407.101562 1223.941406 " fill-opacity="1" fill-rule="nonzero"/><g clip-path="url(#32a462b7b6)"><path fill="#ffffff" d="M 200.636719 1776.351562 L 674.851562 1385.429688 L 1280.96875 429.007812 L 1256.652344 927.566406 L 1665.519531 942.28125 L 1665.746094 942.386719 L 3408.332031 1753.3125 L 2743.253906 645.089844 L 3172.082031 692.804688 L 4019.5 588.640625 L 4288.738281 285.632812 L 4289.472656 285.828125 L 4749.167969 407.410156 L 5256.054688 0.601562 L 5257.585938 2.523438 L 4749.722656 410.101562 L 4749.125 409.9375 L 4289.5625 288.382812 L 4020.714844 590.957031 L 4020.25 591.015625 L 3172.082031 695.269531 L 3171.929688 695.269531 L 2747.898438 648.066406 L 3414.550781 1758.917969 L 3410.914062 1757.222656 L 1664.949219 944.714844 L 1254.082031 929.925781 L 1254.144531 928.679688 L 1278.070312 438.191406 L 678.203125 1384.753906 L 971.441406 1352.109375 L 971.574219 1352.109375 L 1184.980469 1373.300781 L 1425.289062 1220.070312 L 1245.289062 1453.660156 L 1245.050781 1453.777344 L 1040.601562 1562.269531 L 1040.046875 1562 L 675.960938 1387.699219 L 202.199219 1778.246094 Z M 971.453125 1354.574219 L 680.199219 1387.007812 L 1040.554688 1559.519531 L 1243.667969 1451.734375 L 1414.769531 1229.703125 L 1185.582031 1375.839844 L 1185.160156 1375.796875 Z M 971.453125 1354.574219 " fill-opacity="1" fill-rule="nonzero"/></g><g clip-path="url(#611bc981eb)"><path fill="#ffffff" d="M 955.042969 1361.53125 L 955.792969 1359.1875 L 1244.839844 1451.523438 L 1522.269531 1529.898438 L 1980.402344 1368.671875 L 2174.148438 1196.082031 L 2174.585938 1196.066406 L 2985.078125 1162.285156 L 3531.878906 1196.773438 L 4181.898438 883.21875 L 4597.769531 703.28125 L 4748.777344 407.351562 L 4749.695312 407.546875 L 5283.722656 523.507812 L 5283.210938 525.910156 L 4750.101562 410.160156 L 4599.558594 705.1875 L 4599.152344 705.367188 L 4182.921875 885.457031 L 3532.375 1199.269531 L 3532.046875 1199.253906 L 2985.050781 1164.75 L 2175.125 1198.503906 L 1981.679688 1370.835938 L 1981.453125 1370.910156 L 1522.34375 1532.46875 L 1521.96875 1532.363281 L 1244.132812 1453.882812 Z M 955.042969 1361.53125 " fill-opacity="1" fill-rule="nonzero"/></g><path fill="#ffffff" d="M 3525.507812 1204.320312 L 4019.617188 588.460938 L 4429.148438 667.949219 L 4748.65625 407.800781 L 4750.21875 409.710938 L 4429.808594 670.578125 L 4429.238281 670.472656 L 4020.597656 591.152344 L 3538.75 1191.738281 L 3990.660156 865.949219 L 3991.304688 866.25 L 4514.660156 1106.257812 L 4854.847656 528.84375 L 4856.96875 530.089844 L 4515.652344 1109.414062 L 4514.648438 1108.945312 L 3990.929688 868.773438 Z M 3525.507812 1204.320312 " fill-opacity="1" fill-rule="nonzero"/><path fill="#ffffff" d="M 1546.660156 1518.492188 L 1547.035156 1516.074219 L 2819.285156 1712.855469 L 3508.136719 1195.570312 L 3509.609375 1197.539062 L 2819.945312 1715.457031 L 2819.417969 1715.367188 Z M 1546.660156 1518.492188 " fill-opacity="1" fill-rule="nonzero"/><path fill="#ffffff" d="M 4018.972656 588.835938 L 4019.785156 588.613281 L 4721.695312 400.316406 L 4722.328125 402.691406 L 4021.242188 590.777344 L 3992.011719 867.496094 L 3989.5625 867.242188 Z M 4018.972656 588.835938 " fill-opacity="1" fill-rule="nonzero"/><path fill="#ffffff" d="M 1250.023438 925.175781 L 1250.535156 924.53125 L 1428.460938 1063.695312 L 1683.058594 937.457031 L 1683.238281 937.546875 L 2174.121094 1192.070312 L 3401.941406 1753.628906 L 2613.136719 1067.574219 L 2613.675781 1066.957031 L 3406.765625 1756.742188 L 3404.183594 1755.554688 L 2173.757812 1192.808594 L 1683.058594 938.371094 L 1428.355469 1064.65625 L 1428.160156 1064.492188 Z M 1250.023438 925.175781 " fill-opacity="1" fill-rule="nonzero"/><path fill="#ffffff" d="M 196.234375 1605.296875 L 1040.179688 1557.234375 L 1040.269531 1557.28125 L 1666.917969 1843.574219 L 1519.984375 1527.855469 L 1520.734375 1527.960938 L 2827.535156 1723.46875 L 2824.316406 1723.796875 L 1667.683594 1844.808594 L 1667.582031 1844.761719 L 1040.015625 1558.046875 L 196.277344 1606.09375 L 196.234375 1605.265625 Z M 2821.027344 1723.347656 L 1521.367188 1528.90625 L 1668 1843.980469 Z M 2821.027344 1723.347656 " fill-opacity="1" fill-rule="nonzero"/><g clip-path="url(#ffe7666c0f)"><path fill="#ffffff" d="M 2741.058594 652.332031 L 2741.796875 651.972656 L 2993.089844 1167.648438 L 2993.03125 1167.800781 L 2825.039062 1722.339844 L 3527.265625 1198.636719 L 3997.632812 869.242188 L 3997.78125 869.253906 L 4190.871094 883.007812 L 4190.976562 883.066406 L 4514.886719 1107.144531 L 4598.910156 707.519531 L 4599.046875 707.425781 L 4859.402344 531.894531 L 5373.410156 312.640625 L 5373.742188 313.390625 L 4859.792969 532.613281 L 4599.648438 708.015625 L 4515.445312 1108.527344 L 4514.933594 1108.164062 L 4190.601562 883.804688 L 3997.871094 870.082031 L 3527.746094 1199.3125 L 2823.523438 1724.488281 L 2992.203125 1167.710938 Z M 2741.058594 652.332031 " fill-opacity="1" fill-rule="nonzero"/></g><path fill="#ffffff" d="M 3137.855469 304.820312 L 3138.421875 304.214844 L 3611.261719 746.230469 L 3610.699219 746.832031 Z M 3137.855469 304.820312 " fill-opacity="1" fill-rule="nonzero"/><path fill="#ffffff" d="M 3608.453125 753.492188 L 4288.855469 285.378906 L 4549.105469 16.472656 L 4549.363281 16.996094 L 4744.359375 404.734375 L 4743.621094 405.097656 L 4548.898438 17.882812 L 4289.382812 285.996094 L 3608.917969 754.167969 Z M 3608.453125 753.492188 " fill-opacity="1" fill-rule="nonzero"/><path fill="#ffffff" d="M 4015.09375 591.03125 L 4015.800781 590.609375 L 4190.839844 882.765625 L 4431.148438 668.878906 L 4431.359375 668.925781 L 4599.378906 707.367188 L 4599.199219 708.164062 L 4431.375 669.765625 L 4190.644531 884.042969 L 4190.390625 883.625 Z M 4015.09375 591.03125 " fill-opacity="1" fill-rule="nonzero"/><g clip-path="url(#a630d3da80)"><path fill="#ffffff" d="M 3997.585938 870.039062 L 3997.933594 869.285156 L 4515.007812 1107.308594 L 4859.476562 531.699219 L 4859.824219 531.878906 L 5335.691406 778.226562 L 5335.3125 778.964844 L 4859.792969 532.78125 L 4515.324219 1108.359375 L 4514.992188 1108.210938 Z M 3997.585938 870.039062 " fill-opacity="1" fill-rule="nonzero"/></g><path fill="#ffffff" d="M 1407.121094 1222.757812 L 1409.792969 1222.652344 L 2174.058594 1192.011719 L 2174.179688 1192.101562 L 2823.460938 1722.203125 L 2612.925781 1067.136719 L 2613.089844 1066.957031 L 2830.824219 832.992188 L 2831.425781 833.546875 L 2613.84375 1067.332031 L 2825.070312 1724.578125 L 2824.046875 1723.738281 L 1975.5 1376.125 L 1407.105469 1222.730469 Z M 2173.789062 1192.835938 L 1412.5 1223.359375 L 1975.773438 1375.390625 L 2821.882812 1721.996094 L 2173.789062 1192.851562 Z M 2173.789062 1192.835938 " fill-opacity="1" fill-rule="nonzero"/><path fill="#ffffff" d="M 2991.992188 1168.25 L 3169.074219 688.972656 L 3169.839844 689.257812 L 2993.300781 1167.109375 L 4190.644531 883.007812 L 4190.824219 883.804688 Z M 2991.992188 1168.25 " fill-opacity="1" fill-rule="nonzero"/><path fill="#ffffff" d="M 2173.804688 1192.039062 L 3608.960938 723.175781 L 3576.140625 240.609375 L 3576.949219 240.546875 L 3609.757812 722.90625 L 4015.320312 590.414062 L 5181.089844 504.4375 L 5181.152344 505.246094 L 4015.5625 591.210938 L 2992.699219 1168.113281 L 2992.53125 1168.070312 L 2613.40625 1067.679688 L 2174.042969 1192.820312 Z M 3609.023438 724.019531 L 2194.421875 1186.179688 L 2613.40625 1066.835938 L 2613.511719 1066.867188 L 2992.59375 1167.242188 L 4010.347656 593.226562 L 3610.617188 747.449219 Z M 4000.9375 595.976562 L 3609.820312 723.75 L 3611.351562 746.277344 Z M 4000.9375 595.976562 " fill-opacity="1" fill-rule="nonzero"/><path fill="#ffffff" d="M 106.03125 657.441406 L 106.347656 656.691406 L 816.554688 952.679688 L 2174 1192.027344 L 2173.847656 1192.835938 L 816.328125 953.460938 Z M 106.03125 657.441406 " fill-opacity="1" fill-rule="nonzero"/><path fill="#ffffff" d="M 67.890625 1404.574219 L 675.058594 1395.617188 L 176.90625 1205.867188 L 177.191406 1205.101562 L 679.359375 1396.382812 L 67.902344 1405.386719 Z M 67.890625 1404.574219 " fill-opacity="1" fill-rule="nonzero"/><path fill="#ffffff" d="M 454.050781 644.441406 L 1275.167969 440.324219 L 1274.28125 441.316406 L 816.945312 953.054688 L 892.644531 1044.472656 L 892.660156 1044.578125 L 962.585938 1357.925781 L 1040.527344 1557.640625 L 1040.496094 1557.777344 L 971.019531 1799.453125 L 970.222656 1799.226562 L 1039.667969 1557.671875 L 961.804688 1358.167969 L 891.894531 1044.851562 L 815.863281 953.039062 L 816.089844 952.785156 L 1272.777344 441.765625 L 454.246094 645.238281 Z M 454.050781 644.441406 " fill-opacity="1" fill-rule="nonzero"/><path fill="#ffffff" d="M 1038.347656 1557.355469 L 1040.074219 1557.25 L 1520.585938 1527.976562 L 1951.082031 1368.808594 L 1951.367188 1369.574219 L 1520.75 1528.785156 L 1520.691406 1528.785156 L 1041.847656 1557.957031 L 1657.242188 1821.125 L 1656.925781 1821.875 Z M 1038.347656 1557.355469 " fill-opacity="1" fill-rule="nonzero"/><path fill="#ffffff" d="M 3403.957031 1755.101562 L 3527.175781 1198.59375 L 3527.476562 1198.5625 L 4515.128906 1107.429688 L 4515.203125 1108.242188 L 3527.851562 1199.359375 L 3404.753906 1755.269531 Z M 3403.957031 1755.101562 " fill-opacity="1" fill-rule="nonzero"/><path fill="#ffffff" d="M 3263.574219 1103.386719 L 3264.011719 1102.9375 L 3610.691406 746.578125 L 3611.277344 747.148438 L 3265.046875 1103.054688 L 3527.65625 1198.59375 L 3527.371094 1199.359375 Z M 3263.574219 1103.386719 " fill-opacity="1" fill-rule="nonzero"/><path fill="#ffffff" d="M 676.839844 1395.992188 L 816.070312 953.050781 L 816.859375 953.300781 L 677.625 1396.242188 Z M 676.839844 1395.992188 " fill-opacity="1" fill-rule="nonzero"/><path fill="#ffffff" d="M 891.921875 1044.738281 L 892.714844 1044.558594 L 962.53125 1357.933594 L 961.738281 1358.109375 Z M 891.921875 1044.738281 " fill-opacity="1" fill-rule="nonzero"/><path fill="#ffffff" d="M 1672.058594 932.886719 L 1670.691406 933.082031 C 1645.652344 936.734375 1651.90625 975.597656 1677.019531 971.929688 L 1678.386719 971.734375 C 1703.421875 968.082031 1697.171875 929.21875 1672.058594 932.886719 L 1670.691406 933.082031 L 1677.019531 971.929688 L 1678.386719 971.734375 C 1703.421875 968.082031 1697.171875 929.21875 1672.058594 932.886719 Z M 1672.058594 932.886719 " fill-opacity="1" fill-rule="nonzero"/><path fill="#ffffff" d="M 3387.484375 1757.550781 C 3384.539062 1784.828125 3426.921875 1789.441406 3429.882812 1762.121094 C 3432.828125 1734.84375 3390.445312 1730.230469 3387.484375 1757.550781 Z M 3387.484375 1757.550781 " fill-opacity="1" fill-rule="nonzero"/><path fill="#ffffff" d="M 2164.847656 1175.824219 L 2161.601562 1176.304688 C 2158.550781 1176.695312 2155.816406 1177.777344 2153.394531 1179.550781 C 2150.734375 1180.890625 2148.542969 1182.8125 2146.828125 1185.324219 C 2144.875 1187.757812 2143.671875 1190.492188 2143.207031 1193.511719 C 2142.199219 1196.472656 2142.003906 1199.523438 2142.636719 1202.664062 L 2144.347656 1208.363281 C 2146 1212.011719 2148.4375 1215.035156 2151.652344 1217.4375 L 2156.851562 1220.324219 C 2160.773438 1221.84375 2164.832031 1222.277344 2168.980469 1221.632812 L 2172.226562 1221.152344 C 2175.277344 1220.761719 2178.011719 1219.679688 2180.433594 1217.90625 C 2183.09375 1216.566406 2185.285156 1214.644531 2187 1212.132812 C 2188.953125 1209.699219 2190.15625 1206.964844 2190.621094 1203.941406 C 2191.628906 1200.980469 2191.824219 1197.929688 2191.191406 1194.789062 L 2189.480469 1189.09375 C 2187.824219 1185.441406 2185.390625 1182.421875 2182.175781 1180.015625 L 2176.976562 1177.132812 C 2173.054688 1175.613281 2168.996094 1175.179688 2164.847656 1175.824219 Z M 2164.847656 1175.824219 " fill-opacity="1" fill-rule="nonzero"/><path fill="#ffffff" d="M 2815.660156 1689.878906 C 2815.03125 1689.96875 2814.382812 1690.074219 2813.753906 1690.105469 L 2820.351562 1689.9375 C 2820.125 1689.9375 2819.914062 1689.9375 2819.703125 1689.878906 L 2826.105469 1691.457031 C 2826.015625 1691.425781 2825.941406 1691.394531 2825.867188 1691.367188 L 2831.441406 1694.460938 C 2831.441406 1694.460938 2831.304688 1694.371094 2831.246094 1694.3125 L 2835.785156 1698.671875 C 2835.785156 1698.671875 2835.679688 1698.535156 2835.621094 1698.476562 L 2838.910156 1703.839844 C 2838.820312 1703.691406 2838.761719 1703.523438 2838.714844 1703.359375 L 2840.546875 1709.460938 C 2840.367188 1708.800781 2840.277344 1708.125 2840.1875 1707.445312 C 2839.78125 1704.1875 2838.609375 1701.253906 2836.703125 1698.65625 C 2835.257812 1695.800781 2833.199219 1693.457031 2830.523438 1691.621094 C 2827.910156 1689.53125 2824.980469 1688.242188 2821.746094 1687.746094 C 2818.578125 1686.664062 2815.316406 1686.46875 2811.949219 1687.128906 L 2805.847656 1688.960938 C 2801.941406 1690.734375 2798.695312 1693.351562 2796.125 1696.792969 L 2793.027344 1702.367188 C 2791.390625 1706.574219 2790.925781 1710.902344 2791.628906 1715.367188 C 2791.734375 1716.042969 2791.824219 1716.71875 2791.992188 1717.382812 C 2792.59375 1719.769531 2793.074219 1721.875 2794.035156 1723.964844 C 2795.851562 1727.929688 2798.605469 1731.371094 2802.121094 1733.957031 C 2806.191406 1736.976562 2807.183594 1737.007812 2811.242188 1738 C 2812.625 1738.347656 2813.707031 1738.796875 2815.03125 1738.84375 C 2817.960938 1738.960938 2820.753906 1738.855469 2823.597656 1738.449219 C 2826.855469 1738.046875 2829.789062 1736.871094 2832.386719 1734.964844 C 2835.242188 1733.523438 2837.585938 1731.464844 2839.421875 1728.789062 C 2841.511719 1726.171875 2842.800781 1723.242188 2843.296875 1720.011719 C 2844.378906 1716.839844 2844.574219 1713.578125 2843.914062 1710.210938 L 2842.082031 1704.109375 C 2840.308594 1700.203125 2837.691406 1696.957031 2834.25 1694.386719 L 2828.675781 1691.292969 C 2824.46875 1689.652344 2820.140625 1689.1875 2815.675781 1689.894531 Z M 2815.660156 1689.878906 " fill-opacity="1" fill-rule="nonzero"/><path fill="#ffffff" d="M 3015.453125 1170.609375 L 3014.972656 1167.363281 C 3014.59375 1164.433594 3013.558594 1161.789062 3011.84375 1159.457031 C 3010.550781 1156.886719 3008.703125 1154.785156 3006.285156 1153.117188 C 3003.925781 1151.238281 3001.292969 1150.066406 2998.378906 1149.613281 C 2995.523438 1148.636719 2992.578125 1148.457031 2989.558594 1149.058594 L 2984.058594 1150.710938 C 2980.539062 1152.304688 2977.625 1154.664062 2975.308594 1157.761719 L 2972.53125 1162.78125 C 2971.058594 1166.566406 2970.636719 1170.472656 2971.265625 1174.488281 L 2971.75 1177.734375 C 2972.125 1180.664062 2973.160156 1183.308594 2974.875 1185.636719 C 2976.167969 1188.207031 2978.015625 1190.3125 2980.433594 1191.980469 C 2982.792969 1193.859375 2985.425781 1195.03125 2988.339844 1195.480469 C 2991.195312 1196.457031 2994.140625 1196.640625 2997.160156 1196.039062 L 3002.664062 1194.386719 C 3006.179688 1192.792969 3009.09375 1190.433594 3011.410156 1187.335938 L 3014.1875 1182.316406 C 3015.664062 1178.53125 3016.082031 1174.621094 3015.453125 1170.609375 Z M 3015.453125 1170.609375 " fill-opacity="1" fill-rule="nonzero"/><path fill="#ffffff" d="M 3509.5625 1196.21875 C 3506.617188 1223.496094 3548.996094 1228.109375 3551.957031 1200.785156 C 3554.917969 1173.464844 3512.523438 1168.894531 3509.5625 1196.21875 Z M 3509.5625 1196.21875 " fill-opacity="1" fill-rule="nonzero"/><path fill="#ffffff" d="M 3992.644531 589.183594 C 3989.921875 614.355469 4029.058594 618.625 4031.777344 593.40625 C 4034.496094 568.234375 3995.363281 563.964844 3992.644531 589.183594 Z M 3992.644531 589.183594 " fill-opacity="1" fill-rule="nonzero"/><path fill="#ffffff" d="M 4162.570312 878.828125 C 4159.625 906.105469 4202.007812 910.71875 4204.96875 883.398438 C 4207.914062 856.121094 4165.53125 851.507812 4162.570312 878.828125 Z M 4162.570312 878.828125 " fill-opacity="1" fill-rule="nonzero"/><path fill="#ffffff" d="M 3143.601562 693.4375 C 3141 717.558594 3178.496094 721.644531 3181.097656 697.480469 C 3183.699219 673.359375 3146.199219 669.269531 3143.601562 693.4375 Z M 3143.601562 693.4375 " fill-opacity="1" fill-rule="nonzero"/><path fill="#ffffff" d="M 2726.707031 642.007812 C 2724.332031 664.039062 2758.566406 667.765625 2760.941406 645.703125 C 2763.316406 623.671875 2729.082031 619.945312 2726.707031 642.007812 Z M 2726.707031 642.007812 " fill-opacity="1" fill-rule="nonzero"/><path fill="#ffffff" d="M 2800.078125 826.035156 C 2797.25 852.257812 2837.992188 856.707031 2840.835938 830.4375 C 2843.660156 804.210938 2802.917969 799.761719 2800.078125 826.035156 Z M 2800.078125 826.035156 " fill-opacity="1" fill-rule="nonzero"/><path fill="#ffffff" d="M 1961.765625 1351.296875 L 1957.617188 1351.898438 L 1964.996094 1397.226562 L 1965.898438 1397.089844 C 1968.949219 1396.699219 1971.683594 1395.617188 1974.105469 1393.84375 C 1976.765625 1392.507812 1978.957031 1390.582031 1980.671875 1388.074219 C 1982.625 1385.640625 1983.828125 1382.902344 1984.292969 1379.882812 C 1985.300781 1376.921875 1985.496094 1373.871094 1984.863281 1370.730469 L 1983.152344 1365.035156 C 1981.5 1361.382812 1979.0625 1358.363281 1975.847656 1355.957031 L 1970.648438 1353.070312 C 1966.726562 1351.554688 1962.667969 1351.117188 1958.519531 1351.765625 L 1957.617188 1351.898438 C 1954.566406 1352.289062 1951.832031 1353.371094 1949.414062 1355.144531 C 1946.753906 1356.484375 1944.558594 1358.40625 1942.84375 1360.917969 C 1940.890625 1363.351562 1939.6875 1366.085938 1939.222656 1369.109375 C 1938.214844 1372.066406 1938.019531 1375.117188 1938.652344 1378.261719 L 1940.363281 1383.957031 C 1942.019531 1387.609375 1944.453125 1390.628906 1947.667969 1393.03125 L 1952.867188 1395.917969 C 1956.792969 1397.4375 1960.847656 1397.871094 1964.996094 1397.226562 L 1969.144531 1396.625 C 1972.195312 1396.234375 1974.929688 1395.152344 1977.351562 1393.378906 C 1980.011719 1392.042969 1982.203125 1390.117188 1983.917969 1387.609375 C 1985.871094 1385.171875 1987.074219 1382.4375 1987.539062 1379.417969 C 1988.546875 1376.457031 1988.742188 1373.40625 1988.109375 1370.265625 L 1986.398438 1364.570312 C 1984.746094 1360.917969 1982.308594 1357.894531 1979.09375 1355.492188 L 1973.894531 1352.605469 C 1969.972656 1351.089844 1965.914062 1350.652344 1961.765625 1351.296875 Z M 1961.765625 1351.296875 " fill-opacity="1" fill-rule="nonzero"/><path fill="#ffffff" d="M 958.621094 1336.164062 L 954.472656 1336.765625 C 951.542969 1337.140625 948.898438 1338.179688 946.566406 1339.890625 C 943.996094 1341.183594 941.894531 1343.03125 940.226562 1345.453125 C 938.347656 1347.8125 937.175781 1350.441406 936.722656 1353.359375 C 935.746094 1356.214844 935.566406 1359.160156 936.167969 1362.179688 L 937.820312 1367.679688 C 939.414062 1371.195312 941.773438 1374.113281 944.867188 1376.425781 L 949.890625 1379.207031 C 953.675781 1380.679688 957.582031 1381.101562 961.597656 1380.46875 L 962.496094 1380.332031 C 965.429688 1379.957031 968.074219 1378.921875 970.402344 1377.207031 C 972.972656 1375.914062 975.078125 1374.066406 976.746094 1371.648438 C 978.625 1369.289062 979.796875 1366.65625 980.246094 1363.742188 C 981.222656 1360.886719 981.402344 1357.941406 980.800781 1354.921875 L 979.148438 1349.421875 C 977.554688 1345.902344 975.195312 1342.988281 972.101562 1340.671875 L 967.082031 1337.894531 C 963.292969 1336.421875 959.386719 1336 955.375 1336.628906 L 954.472656 1336.765625 L 961.597656 1380.46875 L 965.742188 1379.867188 C 968.675781 1379.492188 971.320312 1378.457031 973.648438 1376.742188 C 976.21875 1375.449219 978.324219 1373.601562 979.992188 1371.179688 C 981.871094 1368.820312 983.042969 1366.191406 983.492188 1363.277344 C 984.46875 1360.421875 984.648438 1357.476562 984.046875 1354.453125 L 982.394531 1348.953125 C 980.800781 1345.4375 978.441406 1342.523438 975.347656 1340.207031 L 970.328125 1337.425781 C 966.539062 1335.953125 962.632812 1335.535156 958.621094 1336.164062 Z M 958.621094 1336.164062 " fill-opacity="1" fill-rule="nonzero"/><path fill="#ffffff" d="M 1244.554688 910.78125 L 1241.308594 911.261719 C 1238.484375 911.621094 1235.941406 912.628906 1233.6875 914.28125 C 1231.222656 915.527344 1229.179688 917.316406 1227.585938 919.632812 C 1225.769531 921.902344 1224.65625 924.441406 1224.222656 927.234375 C 1223.289062 929.988281 1223.109375 932.8125 1223.695312 935.726562 L 1225.289062 941.015625 C 1226.835938 944.398438 1229.089844 947.210938 1232.066406 949.449219 L 1236.90625 952.136719 C 1240.558594 953.550781 1244.3125 953.957031 1248.175781 953.355469 L 1251.421875 952.875 C 1254.25 952.515625 1256.789062 951.507812 1259.042969 949.855469 C 1261.507812 948.605469 1263.550781 946.820312 1265.144531 944.503906 C 1266.960938 942.234375 1268.074219 939.695312 1268.511719 936.898438 C 1269.441406 934.148438 1269.621094 931.324219 1269.035156 928.410156 L 1267.441406 923.117188 C 1265.894531 919.738281 1263.640625 916.925781 1260.664062 914.6875 L 1255.828125 911.996094 C 1252.175781 910.585938 1248.417969 910.179688 1244.554688 910.78125 Z M 1244.554688 910.78125 " fill-opacity="1" fill-rule="nonzero"/><path fill="#ffffff" d="M 798.429688 953.746094 C 796.28125 973.675781 827.253906 977.054688 829.402344 957.082031 C 831.554688 937.109375 800.578125 933.773438 798.429688 953.746094 Z M 798.429688 953.746094 " fill-opacity="1" fill-rule="nonzero"/><path fill="#ffffff" d="M 1275.183594 428.4375 C 1275.078125 428.4375 1274.988281 428.453125 1274.882812 428.453125 L 1279.058594 428.347656 C 1278.699219 428.347656 1278.339844 428.316406 1277.976562 428.242188 L 1282.035156 429.234375 C 1281.734375 429.15625 1281.464844 429.050781 1281.195312 428.917969 L 1284.726562 430.871094 C 1284.515625 430.75 1284.335938 430.617188 1284.15625 430.449219 L 1287.027344 433.214844 C 1286.875 433.066406 1286.738281 432.898438 1286.621094 432.734375 L 1288.707031 436.132812 C 1288.542969 435.859375 1288.421875 435.605469 1288.332031 435.304688 L 1289.492188 439.167969 C 1289.429688 438.957031 1289.386719 438.761719 1289.355469 438.535156 C 1289.097656 436.460938 1288.363281 434.613281 1287.144531 432.976562 C 1286.230469 431.171875 1284.9375 429.683594 1283.222656 428.511719 C 1281.570312 427.1875 1279.722656 426.363281 1277.664062 426.046875 C 1275.648438 425.371094 1273.589844 425.234375 1271.457031 425.65625 L 1267.59375 426.8125 C 1265.113281 427.941406 1263.070312 429.59375 1261.433594 431.773438 C 1259.085938 435.246094 1257.871094 439.332031 1258.578125 443.539062 C 1259.148438 446.859375 1260.425781 449.867188 1262.527344 452.511719 C 1262.589844 452.585938 1262.664062 452.664062 1262.738281 452.738281 L 1265.609375 455.503906 C 1265.714844 455.59375 1265.835938 455.699219 1265.957031 455.773438 C 1266.03125 455.832031 1266.105469 455.878906 1266.195312 455.921875 L 1269.726562 457.878906 C 1269.863281 457.953125 1270 458.011719 1270.148438 458.074219 C 1273.441406 459.304688 1276.714844 459.652344 1280.1875 459.167969 C 1282.261719 458.914062 1284.109375 458.179688 1285.75 456.960938 C 1287.550781 456.042969 1289.039062 454.75 1290.210938 453.039062 C 1291.535156 451.386719 1292.359375 449.535156 1292.675781 447.476562 C 1293.351562 445.464844 1293.488281 443.40625 1293.066406 441.269531 L 1291.910156 437.410156 C 1290.78125 434.929688 1289.128906 432.882812 1286.949219 431.246094 L 1283.417969 429.292969 C 1280.757812 428.253906 1278.007812 427.957031 1275.183594 428.40625 Z M 1275.183594 428.4375 " fill-opacity="1" fill-rule="nonzero"/><path fill="#ffffff" d="M 431.535156 642.714844 C 429.386719 662.640625 460.363281 666.023438 462.511719 646.050781 C 464.660156 626.078125 433.6875 622.742188 431.535156 642.714844 Z M 431.535156 642.714844 " fill-opacity="1" fill-rule="nonzero"/><path fill="#ffffff" d="M 652.863281 1392.402344 C 650.59375 1413.382812 683.207031 1416.945312 685.476562 1395.917969 C 687.746094 1374.9375 655.132812 1371.375 652.863281 1392.402344 Z M 652.863281 1392.402344 " fill-opacity="1" fill-rule="nonzero"/><path fill="#ffffff" d="M 1031.570312 1546.476562 L 1028.324219 1546.957031 C 1026.25 1547.210938 1024.402344 1547.949219 1022.761719 1549.164062 C 1020.957031 1550.082031 1019.472656 1551.375 1018.300781 1553.085938 C 1016.976562 1554.742188 1016.148438 1556.589844 1015.835938 1558.648438 C 1015.15625 1560.660156 1015.023438 1562.722656 1015.445312 1564.855469 L 1016.601562 1568.71875 C 1017.726562 1571.195312 1019.382812 1573.242188 1021.558594 1574.878906 L 1025.09375 1576.832031 C 1027.75 1577.871094 1030.503906 1578.171875 1033.328125 1577.71875 L 1036.574219 1577.238281 C 1038.648438 1576.984375 1040.496094 1576.246094 1042.132812 1575.03125 C 1043.9375 1574.113281 1045.425781 1572.820312 1046.597656 1571.105469 C 1047.921875 1569.453125 1048.746094 1567.605469 1049.0625 1565.546875 C 1049.738281 1563.53125 1049.875 1561.472656 1049.453125 1559.339844 L 1048.296875 1555.476562 C 1047.167969 1552.996094 1045.515625 1550.953125 1043.335938 1549.316406 L 1039.804688 1547.363281 C 1037.144531 1546.324219 1034.394531 1546.023438 1031.570312 1546.476562 Z M 1031.570312 1546.476562 " fill-opacity="1" fill-rule="nonzero"/><path fill="#ffffff" d="M 1654.699219 1842.195312 C 1652.429688 1863.171875 1685.042969 1866.734375 1687.3125 1845.710938 C 1689.582031 1824.683594 1656.96875 1821.167969 1654.699219 1842.195312 Z M 1654.699219 1842.195312 " fill-opacity="1" fill-rule="nonzero"/><path fill="#ffffff" d="M 1498.6875 1527.660156 C 1496.539062 1547.585938 1527.511719 1550.96875 1529.664062 1530.996094 C 1531.8125 1511.023438 1500.835938 1507.6875 1498.6875 1527.660156 Z M 1498.6875 1527.660156 " fill-opacity="1" fill-rule="nonzero"/><path fill="#ffffff" d="M 2607.785156 1053.160156 L 2604.539062 1053.640625 C 2602.585938 1053.882812 2600.828125 1054.589844 2599.265625 1055.730469 C 2597.550781 1056.585938 2596.152344 1057.835938 2595.042969 1059.441406 C 2593.792969 1061.003906 2593.011719 1062.765625 2592.710938 1064.71875 C 2592.066406 1066.625 2591.945312 1068.582031 2592.335938 1070.59375 L 2593.433594 1074.261719 C 2594.5 1076.605469 2596.0625 1078.542969 2598.121094 1080.09375 L 2601.472656 1081.957031 C 2604 1082.933594 2606.597656 1083.21875 2609.273438 1082.796875 L 2612.519531 1082.316406 C 2614.472656 1082.074219 2616.230469 1081.371094 2617.792969 1080.226562 C 2619.507812 1079.371094 2620.90625 1078.125 2622.015625 1076.515625 C 2623.265625 1074.953125 2624.046875 1073.195312 2624.347656 1071.242188 C 2624.992188 1069.332031 2625.113281 1067.378906 2624.722656 1065.363281 L 2623.625 1061.695312 C 2622.558594 1059.351562 2620.996094 1057.414062 2618.9375 1055.867188 L 2615.585938 1054.003906 C 2613.0625 1053.027344 2610.460938 1052.738281 2607.785156 1053.160156 Z M 2607.785156 1053.160156 " fill-opacity="1" fill-rule="nonzero"/><path fill="#ffffff" d="M 3620.339844 748.546875 L 3619.859375 745.300781 C 3619.601562 743.226562 3618.867188 741.378906 3617.648438 739.738281 C 3616.730469 737.9375 3615.441406 736.449219 3613.726562 735.277344 C 3612.074219 733.953125 3610.222656 733.125 3608.164062 732.8125 C 3606.152344 732.132812 3604.09375 732 3601.957031 732.421875 L 3598.097656 733.578125 C 3595.617188 734.703125 3593.574219 736.359375 3591.933594 738.535156 L 3589.980469 742.070312 C 3588.945312 744.726562 3588.644531 747.480469 3589.09375 750.304688 L 3589.574219 753.550781 C 3589.832031 755.625 3590.566406 757.472656 3591.785156 759.109375 C 3592.699219 760.914062 3593.992188 762.402344 3595.707031 763.574219 C 3597.359375 764.898438 3599.207031 765.722656 3601.265625 766.039062 C 3603.28125 766.714844 3605.339844 766.851562 3607.472656 766.429688 L 3611.335938 765.273438 C 3613.816406 764.144531 3615.859375 762.492188 3617.5 760.3125 L 3619.453125 756.78125 C 3620.488281 754.121094 3620.789062 751.371094 3620.339844 748.546875 Z M 3620.339844 748.546875 " fill-opacity="1" fill-rule="nonzero"/><path fill="#ffffff" d="M 3665.410156 999.253906 C 3663.261719 1019.179688 3694.234375 1022.5625 3696.382812 1002.589844 C 3698.53125 982.660156 3667.558594 979.28125 3665.410156 999.253906 Z M 3665.410156 999.253906 " fill-opacity="1" fill-rule="nonzero"/><path fill="#ffffff" d="M 4003.765625 857.609375 L 4000.050781 854.84375 C 3998.398438 853.519531 3996.550781 852.695312 3994.492188 852.378906 C 3992.476562 851.703125 3990.417969 851.566406 3988.285156 851.988281 C 3986.210938 852.242188 3984.363281 852.980469 3982.722656 854.195312 C 3980.921875 855.113281 3979.433594 856.40625 3978.261719 858.121094 L 3976.308594 861.652344 C 3975.269531 864.3125 3974.96875 867.0625 3975.421875 869.886719 C 3976.246094 873.871094 3978.214844 877.429688 3981.535156 879.910156 L 3985.25 882.675781 C 3986.902344 884 3988.75 884.824219 3990.808594 885.140625 C 3992.824219 885.816406 3994.882812 885.953125 3997.015625 885.53125 C 3999.089844 885.277344 4000.9375 884.539062 4002.578125 883.324219 C 4004.378906 882.40625 4005.867188 881.113281 4007.039062 879.398438 L 4008.992188 875.867188 C 4010.03125 873.207031 4010.332031 870.457031 4009.878906 867.632812 C 4009.054688 863.648438 4007.085938 860.089844 4003.765625 857.609375 Z M 4003.765625 857.609375 " fill-opacity="1" fill-rule="nonzero"/><path fill="#ffffff" d="M 4506.636719 1096.640625 L 4503.390625 1097.121094 C 4501.316406 1097.375 4499.46875 1098.113281 4497.828125 1099.328125 C 4496.027344 1100.246094 4494.539062 1101.539062 4493.367188 1103.25 C 4492.042969 1104.90625 4491.21875 1106.753906 4490.902344 1108.8125 C 4490.226562 1110.824219 4490.089844 1112.882812 4490.511719 1115.019531 L 4491.667969 1118.882812 C 4492.796875 1121.359375 4494.449219 1123.40625 4496.628906 1125.042969 L 4500.160156 1126.996094 C 4502.820312 1128.035156 4505.570312 1128.335938 4508.394531 1127.882812 L 4511.640625 1127.402344 C 4513.714844 1127.148438 4515.5625 1126.410156 4517.203125 1125.191406 C 4519.003906 1124.277344 4520.492188 1122.984375 4521.664062 1121.269531 C 4522.988281 1119.617188 4523.816406 1117.769531 4524.128906 1115.710938 C 4524.804688 1113.695312 4524.941406 1111.636719 4524.519531 1109.503906 L 4523.363281 1105.640625 C 4522.238281 1103.160156 4520.582031 1101.117188 4518.402344 1099.480469 L 4514.871094 1097.527344 C 4512.210938 1096.488281 4509.460938 1096.1875 4506.636719 1096.640625 Z M 4506.636719 1096.640625 " fill-opacity="1" fill-rule="nonzero"/><path fill="#ffffff" d="M 4593.261719 691.242188 L 4590.015625 691.722656 C 4587.730469 692.007812 4585.6875 692.820312 4583.867188 694.15625 C 4581.871094 695.164062 4580.230469 696.605469 4578.9375 698.484375 C 4577.480469 700.320312 4576.5625 702.363281 4576.21875 704.632812 C 4575.46875 706.855469 4575.316406 709.140625 4575.78125 711.484375 L 4577.058594 715.753906 C 4578.308594 718.488281 4580.125 720.757812 4582.546875 722.5625 L 4586.453125 724.726562 C 4589.398438 725.867188 4592.433594 726.199219 4595.5625 725.703125 L 4598.808594 725.222656 C 4601.089844 724.9375 4603.136719 724.125 4604.953125 722.785156 C 4606.953125 721.78125 4608.589844 720.335938 4609.882812 718.457031 C 4611.339844 716.625 4612.257812 714.582031 4612.601562 712.3125 C 4613.355469 710.085938 4613.503906 707.804688 4613.039062 705.457031 L 4611.761719 701.191406 C 4610.515625 698.457031 4608.695312 696.1875 4606.277344 694.382812 L 4602.367188 692.21875 C 4599.421875 691.078125 4596.386719 690.746094 4593.261719 691.242188 Z M 4593.261719 691.242188 " fill-opacity="1" fill-rule="nonzero"/><path fill="#ffffff" d="M 4837.988281 527.535156 C 4835.492188 550.617188 4871.367188 554.527344 4873.859375 531.414062 C 4876.355469 508.328125 4840.480469 504.421875 4837.988281 527.535156 Z M 4837.988281 527.535156 " fill-opacity="1" fill-rule="nonzero"/><path fill="#ffffff" d="M 4531.195312 21.640625 C 4528.59375 45.761719 4566.089844 49.851562 4568.691406 25.683594 C 4571.289062 1.5625 4533.792969 -2.523438 4531.195312 21.640625 Z M 4531.195312 21.640625 " fill-opacity="1" fill-rule="nonzero"/><path fill="#ffffff" d="M 4296.027344 287.738281 L 4295.542969 284.492188 C 4295.273438 282.3125 4294.492188 280.359375 4293.230469 278.632812 C 4292.269531 276.738281 4290.902344 275.175781 4289.113281 273.941406 C 4287.371094 272.542969 4285.414062 271.6875 4283.265625 271.355469 C 4281.148438 270.636719 4278.96875 270.5 4276.730469 270.953125 L 4272.65625 272.167969 C 4270.054688 273.355469 4267.890625 275.097656 4266.179688 277.382812 L 4264.121094 281.097656 C 4263.039062 283.90625 4262.722656 286.792969 4263.1875 289.765625 L 4263.667969 293.011719 C 4263.9375 295.191406 4264.71875 297.144531 4265.984375 298.875 C 4266.945312 300.769531 4268.3125 302.332031 4270.101562 303.5625 C 4271.84375 304.960938 4273.796875 305.816406 4275.945312 306.148438 C 4278.066406 306.871094 4280.246094 307.003906 4282.484375 306.554688 L 4286.558594 305.335938 C 4289.15625 304.148438 4291.320312 302.40625 4293.035156 300.121094 L 4295.09375 296.410156 C 4296.175781 293.597656 4296.492188 290.714844 4296.027344 287.738281 Z M 4296.027344 287.738281 " fill-opacity="1" fill-rule="nonzero"/><path fill="#ffffff" d="M 4012.148438 591.089844 L 4751.152344 408.644531 L 4751.242188 409.035156 L 4012.253906 591.480469 Z M 4012.148438 591.089844 " fill-opacity="1" fill-rule="nonzero"/><path fill="#ffffff" d="M 4725.394531 410.117188 C 4723.125 431.097656 4755.734375 434.65625 4758.003906 413.632812 C 4760.273438 392.652344 4727.664062 389.089844 4725.394531 410.117188 Z M 4725.394531 410.117188 " fill-opacity="1" fill-rule="nonzero"/><path fill="#ffffff" d="M 1397.199219 1222.429688 C 1395.863281 1234.765625 1405.226562 1246.382812 1417.5625 1247.722656 C 1429.949219 1249.058594 1441.519531 1239.742188 1442.855469 1227.359375 C 1444.195312 1215.019531 1434.832031 1203.402344 1422.492188 1202.066406 C 1410.109375 1200.726562 1398.539062 1210.042969 1397.199219 1222.429688 Z M 1397.199219 1222.429688 " fill-opacity="1" fill-rule="nonzero"/><path fill="#ffffff" d="M 1164.691406 1368.160156 C 1162.09375 1392.28125 1199.589844 1396.371094 1202.1875 1372.203125 C 1204.789062 1348.082031 1167.292969 1343.996094 1164.691406 1368.160156 Z M 1164.691406 1368.160156 " fill-opacity="1" fill-rule="nonzero"/><path fill="#ffffff" d="M 3554.695312 246.257812 C 3552.425781 267.238281 3585.035156 270.800781 3587.304688 249.777344 C 3589.574219 228.796875 3556.964844 225.234375 3554.695312 246.257812 Z M 3554.695312 246.257812 " fill-opacity="1" fill-rule="nonzero"/><path fill="#ffffff" d="M 3139.4375 290.308594 L 3136.191406 290.789062 C 3134.34375 291.03125 3132.675781 291.675781 3131.21875 292.757812 C 3129.609375 293.570312 3128.273438 294.742188 3127.234375 296.257812 C 3126.046875 297.746094 3125.3125 299.402344 3125.039062 301.234375 C 3124.425781 303.039062 3124.320312 304.886719 3124.695312 306.78125 L 3125.730469 310.234375 C 3126.738281 312.445312 3128.210938 314.292969 3130.164062 315.75 L 3133.320312 317.511719 C 3135.710938 318.441406 3138.160156 318.699219 3140.6875 318.304688 L 3143.929688 317.824219 C 3145.78125 317.585938 3147.449219 316.9375 3148.90625 315.855469 C 3150.515625 315.046875 3151.851562 313.875 3152.890625 312.355469 C 3154.074219 310.867188 3154.8125 309.214844 3155.082031 307.378906 C 3155.699219 305.578125 3155.804688 303.730469 3155.429688 301.835938 L 3154.390625 298.378906 C 3153.382812 296.167969 3151.910156 294.320312 3149.957031 292.863281 L 3146.800781 291.105469 C 3144.414062 290.171875 3141.960938 289.917969 3139.4375 290.308594 Z M 3139.4375 290.308594 " fill-opacity="1" fill-rule="nonzero"/><path fill="#ffffff" d="M 1407.539062 1060.886719 C 1404.714844 1087.109375 1445.457031 1091.558594 1448.296875 1065.289062 C 1451.136719 1039.019531 1410.378906 1034.617188 1407.539062 1060.886719 Z M 1407.539062 1060.886719 " fill-opacity="1" fill-rule="nonzero"/><path fill="#ffffff" d="M 879.644531 1045.992188 C 877.601562 1064.867188 906.953125 1068.070312 908.996094 1049.164062 C 911.039062 1030.257812 881.6875 1027.085938 879.644531 1045.992188 Z M 879.644531 1045.992188 " fill-opacity="1" fill-rule="nonzero"/><path fill="#ffffff" d="M 307.867188 1251.945312 L 308.046875 1249.179688 C 308.40625 1246.714844 308.136719 1244.355469 307.25 1242.101562 C 306.769531 1239.800781 305.730469 1237.742188 304.167969 1235.925781 C 302.726562 1234 300.9375 1232.558594 298.804688 1231.59375 C 296.789062 1230.242188 294.535156 1229.476562 292.054688 1229.3125 L 287.214844 1229.429688 C 284.089844 1229.957031 281.28125 1231.203125 278.800781 1233.1875 L 275.601562 1236.511719 C 273.675781 1239.125 272.535156 1242.054688 272.171875 1245.300781 L 271.992188 1248.066406 C 271.632812 1250.53125 271.902344 1252.890625 272.789062 1255.144531 C 273.269531 1257.445312 274.308594 1259.503906 275.871094 1261.324219 C 277.3125 1263.246094 279.101562 1264.6875 281.234375 1265.652344 C 283.25 1267.003906 285.503906 1267.769531 287.984375 1267.933594 L 292.824219 1267.816406 C 295.949219 1267.289062 298.757812 1266.042969 301.238281 1264.058594 L 304.441406 1260.734375 C 306.363281 1258.121094 307.503906 1255.191406 307.867188 1251.945312 Z M 307.867188 1251.945312 " fill-opacity="1" fill-rule="nonzero"/><path fill="#ffffff" d="M 212.871094 1617.410156 L 215.816406 1614.824219 C 217.484375 1613.578125 218.730469 1612.046875 219.558594 1610.183594 C 220.730469 1608.4375 221.390625 1606.5 221.542969 1604.367188 C 221.855469 1602.246094 221.617188 1600.203125 220.851562 1598.25 C 220.429688 1596.265625 219.542969 1594.492188 218.191406 1592.914062 L 215.320312 1590.148438 C 213.050781 1588.480469 210.527344 1587.503906 207.730469 1587.1875 L 203.550781 1587.292969 C 200.847656 1587.742188 198.425781 1588.824219 196.292969 1590.539062 L 193.347656 1593.125 C 191.679688 1594.371094 190.433594 1595.90625 189.605469 1597.769531 C 188.433594 1599.511719 187.773438 1601.449219 187.621094 1603.585938 C 187.304688 1605.703125 187.546875 1607.746094 188.3125 1609.699219 C 188.734375 1611.683594 189.621094 1613.457031 190.972656 1615.035156 L 193.84375 1617.800781 C 196.113281 1619.46875 198.636719 1620.445312 201.433594 1620.761719 L 205.613281 1620.65625 C 208.316406 1620.207031 210.734375 1619.125 212.871094 1617.410156 Z M 212.871094 1617.410156 " fill-opacity="1" fill-rule="nonzero"/><path fill="#ffffff" d="M 219.0625 1776.203125 L 219.242188 1773.4375 C 219.496094 1771.648438 219.316406 1769.9375 218.65625 1768.296875 C 218.308594 1766.628906 217.558594 1765.125 216.417969 1763.804688 C 215.378906 1762.40625 214.074219 1761.355469 212.507812 1760.648438 C 211.035156 1759.671875 209.414062 1759.113281 207.609375 1758.980469 L 204.09375 1759.070312 C 201.824219 1759.445312 199.78125 1760.363281 197.976562 1761.804688 L 195.648438 1764.226562 C 194.25 1766.132812 193.421875 1768.269531 193.152344 1770.613281 L 192.972656 1773.378906 C 192.714844 1775.164062 192.898438 1776.878906 193.558594 1778.515625 C 193.902344 1780.183594 194.65625 1781.6875 195.796875 1783.011719 C 196.835938 1784.410156 198.140625 1785.460938 199.707031 1786.167969 C 201.179688 1787.144531 202.800781 1787.699219 204.605469 1787.835938 L 208.121094 1787.746094 C 210.390625 1787.367188 212.433594 1786.453125 214.238281 1785.007812 L 216.566406 1782.589844 C 217.964844 1780.679688 218.792969 1778.546875 219.0625 1776.203125 Z M 219.0625 1776.203125 " fill-opacity="1" fill-rule="nonzero"/><path fill="#ffffff" d="M 963.789062 1792.597656 C 961.640625 1812.527344 992.613281 1815.910156 994.765625 1795.933594 C 996.914062 1776.007812 965.9375 1772.625 963.789062 1792.597656 Z M 963.789062 1792.597656 " fill-opacity="1" fill-rule="nonzero"/><path fill="#ffffff" d="M 3270.816406 1118.566406 L 3273.582031 1118.746094 C 3275.929688 1119.089844 3278.183594 1118.835938 3280.332031 1117.980469 C 3282.527344 1117.511719 3284.496094 1116.535156 3286.222656 1115.035156 C 3288.054688 1113.667969 3289.4375 1111.953125 3290.355469 1109.910156 C 3291.648438 1107.984375 3292.371094 1105.835938 3292.535156 1103.476562 L 3292.414062 1098.863281 C 3291.917969 1095.871094 3290.714844 1093.195312 3288.824219 1090.835938 L 3285.652344 1087.785156 C 3283.140625 1085.953125 3280.347656 1084.855469 3277.265625 1084.511719 L 3274.5 1084.332031 C 3272.15625 1083.984375 3269.902344 1084.238281 3267.75 1085.097656 C 3265.558594 1085.5625 3263.589844 1086.539062 3261.859375 1088.042969 C 3260.027344 1089.410156 3258.644531 1091.125 3257.726562 1093.167969 C 3256.433594 1095.089844 3255.714844 1097.238281 3255.550781 1099.597656 L 3255.667969 1104.214844 C 3256.164062 1107.203125 3257.367188 1109.878906 3259.261719 1112.238281 L 3262.433594 1115.289062 C 3264.941406 1117.121094 3267.738281 1118.21875 3270.816406 1118.566406 Z M 3270.816406 1118.566406 " fill-opacity="1" fill-rule="nonzero"/><path fill="#ffffff" d="M 3266.476562 1026.695312 L 3266.65625 1023.929688 C 3266.925781 1022.035156 3266.730469 1020.203125 3266.039062 1018.460938 C 3265.664062 1016.6875 3264.867188 1015.09375 3263.648438 1013.695312 C 3262.539062 1012.207031 3261.15625 1011.097656 3259.5 1010.34375 C 3257.9375 1009.292969 3256.210938 1008.707031 3254.285156 1008.570312 L 3250.546875 1008.660156 C 3248.125 1009.066406 3245.960938 1010.027344 3244.050781 1011.5625 L 3241.585938 1014.132812 C 3240.101562 1016.160156 3239.214844 1018.414062 3238.941406 1020.925781 L 3238.761719 1023.691406 C 3238.492188 1025.582031 3238.6875 1027.417969 3239.378906 1029.160156 C 3239.753906 1030.933594 3240.550781 1032.527344 3241.769531 1033.925781 C 3242.878906 1035.414062 3244.261719 1036.523438 3245.914062 1037.277344 C 3247.480469 1038.328125 3249.207031 1038.914062 3251.132812 1039.050781 L 3254.871094 1038.957031 C 3257.292969 1038.554688 3259.457031 1037.589844 3261.367188 1036.058594 L 3263.828125 1033.488281 C 3265.316406 1031.460938 3266.203125 1029.207031 3266.476562 1026.695312 Z M 3266.476562 1026.695312 " fill-opacity="1" fill-rule="nonzero"/><path fill="#ffffff" d="M 3188.355469 850.964844 C 3185.980469 872.996094 3220.21875 876.726562 3222.589844 854.664062 C 3224.964844 832.632812 3190.730469 828.902344 3188.355469 850.964844 Z M 3188.355469 850.964844 " fill-opacity="1" fill-rule="nonzero"/><path fill="#ffffff" d="M 3087.109375 891.785156 C 3085.289062 908.570312 3111.378906 911.410156 3113.199219 894.59375 C 3115.015625 877.808594 3088.925781 874.964844 3087.109375 891.785156 Z M 3087.109375 891.785156 " fill-opacity="1" fill-rule="nonzero"/><path fill="#ffffff" d="M 2917.617188 941.800781 C 2915.464844 961.726562 2946.441406 965.109375 2948.589844 945.136719 C 2950.738281 925.164062 2919.765625 921.824219 2917.617188 941.800781 Z M 2917.617188 941.800781 " fill-opacity="1" fill-rule="nonzero"/><path fill="#ffffff" d="M 2884.042969 953.640625 C 2882.34375 969.375 2906.796875 972.035156 2908.492188 956.285156 C 2910.191406 940.550781 2885.742188 937.890625 2884.042969 953.640625 Z M 2884.042969 953.640625 " fill-opacity="1" fill-rule="nonzero"/><path fill="#ffffff" d="M 4412.421875 669.148438 C 4409.925781 692.234375 4445.800781 696.140625 4448.296875 673.027344 C 4450.789062 649.941406 4414.917969 646.035156 4412.421875 669.148438 Z M 4412.421875 669.148438 " fill-opacity="1" fill-rule="nonzero"/><path fill="#ffffff" d="M 1813.175781 1204.167969 C 1810.230469 1231.445312 1852.613281 1236.058594 1855.574219 1208.738281 C 1858.519531 1181.460938 1816.136719 1176.847656 1813.175781 1204.167969 Z M 1813.175781 1204.167969 " fill-opacity="1" fill-rule="nonzero"/><path fill="#ffffff" d="M 2448.40625 1422.984375 C 2445.6875 1448.15625 2484.820312 1452.425781 2487.542969 1427.207031 C 2490.261719 1402.035156 2451.128906 1397.765625 2448.40625 1422.984375 Z M 2448.40625 1422.984375 " fill-opacity="1" fill-rule="nonzero"/><path fill="#ffffff" d="M 2719.539062 1440.449219 C 2716.59375 1467.726562 2758.972656 1472.339844 2761.933594 1445.015625 C 2764.878906 1417.738281 2722.5 1413.125 2719.539062 1440.449219 Z M 2719.539062 1440.449219 " fill-opacity="1" fill-rule="nonzero"/><path fill="#ffffff" d="M 2923.777344 1353.824219 C 2921.175781 1377.945312 2958.675781 1382.03125 2961.273438 1357.867188 C 2963.875 1333.746094 2926.378906 1329.65625 2923.777344 1353.824219 Z M 2923.777344 1353.824219 " fill-opacity="1" fill-rule="nonzero"/><path fill="#ffffff" d="M 2676.226562 1180.421875 L 2676.464844 1176.742188 C 2676.902344 1173.71875 2676.585938 1170.835938 2675.488281 1168.054688 C 2674.902344 1165.230469 2673.640625 1162.703125 2671.703125 1160.480469 C 2669.945312 1158.121094 2667.75 1156.347656 2665.105469 1155.160156 C 2662.625 1153.492188 2659.875 1152.558594 2656.824219 1152.351562 L 2650.886719 1152.5 C 2647.039062 1153.144531 2643.597656 1154.679688 2640.5625 1157.113281 L 2636.640625 1161.203125 C 2634.28125 1164.417969 2632.882812 1168.007812 2632.433594 1171.992188 L 2632.191406 1175.675781 C 2631.757812 1178.695312 2632.070312 1181.582031 2633.167969 1184.359375 C 2633.753906 1187.1875 2635.015625 1189.710938 2636.957031 1191.933594 C 2638.714844 1194.292969 2640.910156 1196.066406 2643.554688 1197.253906 C 2646.035156 1198.921875 2648.785156 1199.855469 2651.835938 1200.066406 L 2657.769531 1199.914062 C 2661.617188 1199.269531 2665.058594 1197.734375 2668.09375 1195.300781 L 2672.019531 1191.214844 C 2674.378906 1187.996094 2675.773438 1184.40625 2676.226562 1180.421875 Z M 2676.226562 1180.421875 " fill-opacity="1" fill-rule="nonzero"/><path fill="#ffffff" d="M 2721.777344 1170.535156 C 2719.28125 1193.617188 2755.15625 1197.527344 2757.652344 1174.410156 C 2760.144531 1151.328125 2724.273438 1147.421875 2721.777344 1170.535156 Z M 2721.777344 1170.535156 " fill-opacity="1" fill-rule="nonzero"/><path fill="#ffffff" d="M 3305.820312 1341.515625 C 3303.21875 1365.636719 3340.714844 1369.722656 3343.316406 1345.558594 C 3345.917969 1321.4375 3308.417969 1317.347656 3305.820312 1341.515625 Z M 3305.820312 1341.515625 " fill-opacity="1" fill-rule="nonzero"/><path fill="#ffffff" d="M 3229.308594 1423.253906 L 3229.550781 1419.574219 C 3229.894531 1417.230469 3229.640625 1414.976562 3228.78125 1412.824219 C 3228.316406 1410.632812 3227.339844 1408.664062 3225.835938 1406.933594 C 3224.46875 1405.101562 3222.757812 1403.71875 3220.714844 1402.800781 C 3218.789062 1401.507812 3216.640625 1400.789062 3214.28125 1400.621094 L 3209.667969 1400.742188 C 3206.675781 1401.238281 3204 1402.441406 3201.640625 1404.335938 L 3198.589844 1407.503906 C 3196.757812 1410.015625 3195.660156 1412.8125 3195.3125 1415.890625 L 3195.074219 1419.574219 C 3194.726562 1421.917969 3194.984375 1424.171875 3195.839844 1426.320312 C 3196.304688 1428.515625 3197.285156 1430.484375 3198.785156 1432.210938 C 3200.152344 1434.046875 3201.867188 1435.429688 3203.910156 1436.34375 C 3205.835938 1437.636719 3207.984375 1438.359375 3210.34375 1438.523438 L 3214.957031 1438.40625 C 3217.949219 1437.910156 3220.621094 1436.707031 3222.980469 1434.8125 L 3226.03125 1431.640625 C 3227.867188 1429.132812 3228.964844 1426.335938 3229.308594 1423.253906 Z M 3229.308594 1423.253906 " fill-opacity="1" fill-rule="nonzero"/><path fill="#ffffff" d="M 3045.238281 1566.777344 L 3045.480469 1563.097656 C 3045.808594 1560.859375 3045.570312 1558.722656 3044.757812 1556.664062 C 3044.320312 1554.574219 3043.390625 1552.695312 3041.949219 1551.058594 C 3040.640625 1549.316406 3039.015625 1547.992188 3037.0625 1547.121094 C 3035.230469 1545.890625 3033.183594 1545.199219 3030.929688 1545.03125 L 3026.527344 1545.152344 C 3023.6875 1545.632812 3021.132812 1546.761719 3018.878906 1548.5625 L 3015.976562 1551.585938 C 3014.234375 1553.972656 3013.199219 1556.632812 3012.867188 1559.582031 L 3012.625 1563.261719 C 3012.296875 1565.5 3012.535156 1567.636719 3013.347656 1569.695312 C 3013.785156 1571.785156 3014.714844 1573.660156 3016.160156 1575.300781 C 3017.464844 1577.042969 3019.089844 1578.367188 3021.042969 1579.238281 C 3022.875 1580.46875 3024.921875 1581.160156 3027.175781 1581.328125 L 3031.578125 1581.207031 C 3034.417969 1580.726562 3036.972656 1579.597656 3039.226562 1577.792969 L 3042.128906 1574.773438 C 3043.871094 1572.382812 3044.910156 1569.722656 3045.238281 1566.777344 Z M 3045.238281 1566.777344 " fill-opacity="1" fill-rule="nonzero"/><path fill="#ffffff" d="M 3100.890625 1502.304688 C 3098.515625 1524.339844 3132.75 1528.066406 3135.125 1506.003906 C 3137.5 1483.972656 3103.265625 1480.246094 3100.890625 1502.304688 Z M 3100.890625 1502.304688 " fill-opacity="1" fill-rule="nonzero"/><path fill="#ffffff" d="M 2957.351562 1604.066406 C 2954.976562 1626.097656 2989.210938 1629.824219 2991.585938 1607.761719 C 2993.960938 1585.730469 2959.726562 1582.003906 2957.351562 1604.066406 Z M 2957.351562 1604.066406 " fill-opacity="1" fill-rule="nonzero"/><path fill="#ffffff" d="M 3447.871094 906.511719 C 3445.148438 931.683594 3484.285156 935.953125 3487.003906 910.734375 C 3489.726562 885.5625 3450.589844 881.292969 3447.871094 906.511719 Z M 3447.871094 906.511719 " fill-opacity="1" fill-rule="nonzero"/></g></g></g><g clip-path="url(#1684cb2951)"><path fill="#f88507" d="M 1561.222656 699.710938 L 1497.050781 635.539062 L 1209.519531 923.296875 L 1273.691406 987.46875 Z M 1753.738281 635.539062 L 1273.464844 1115.585938 L 1084.351562 926.46875 L 1020.175781 990.644531 L 1273.464844 1243.929688 L 1817.683594 699.710938 Z M 763.714844 990.644531 L 1017.003906 1243.929688 L 1081.175781 1179.757812 L 827.886719 926.46875 Z M 763.714844 990.644531 " fill-opacity="1" fill-rule="nonzero"/></g><g fill="#000000" fill-opacity="1"><g transform="translate(3117.776689, 840.079396)"><g><path d="M 63.128906 -404.257812 C 19.382812 -306.792969 55.929688 -312.882812 177.207031 -163.363281 C 235.355469 -91.925781 181.085938 96.910156 109.648438 118.507812 C -13.289062 156.164062 -30.457031 -60.914062 105.773438 -94.140625 C 116.292969 -99.679688 119.0625 -106.878906 107.433594 -107.433594 C -43.75 -65.347656 -40.980469 164.472656 116.847656 127.921875 C 255.84375 95.804688 359.957031 -119.617188 237.015625 -240.894531 C 203.789062 -274.121094 42.640625 -343.34375 86.941406 -409.242188 C 125.707031 -479.570312 302.917969 -548.238281 330.605469 -396.503906 C 324.511719 -379.335938 342.234375 -383.769531 341.125 -395.398438 C 327.835938 -550.453125 127.367188 -508.367188 63.128906 -404.257812 Z M 63.128906 -404.257812 "/></g></g></g><g fill="#000000" fill-opacity="1"><g transform="translate(3422.353704, 840.079396)"><g><path d="M 191.605469 122.386719 C 217.082031 117.402344 211.542969 106.878906 206.558594 101.894531 C 174.441406 103.554688 118.507812 111.308594 83.621094 112.96875 C 95.804688 32.117188 121.832031 -220.957031 121.832031 -220.957031 C 127.921875 -220.957031 181.085938 -229.265625 210.433594 -229.265625 C 224.28125 -230.371094 227.046875 -249.199219 213.757812 -249.199219 C 187.730469 -249.199219 126.816406 -240.894531 126.816406 -240.894531 C 135.121094 -281.320312 152.84375 -402.042969 169.457031 -477.910156 C 175.546875 -477.910156 230.925781 -472.925781 276.890625 -480.679688 C 286.304688 -482.339844 286.855469 -498.398438 280.210938 -497.292969 C 244.769531 -492.308594 122.386719 -497.292969 101.894531 -497.292969 C 71.4375 -500.0625 63.683594 -466.835938 70.328125 -466.835938 C 22.703125 -247.539062 3.875 68.667969 1.660156 127.921875 C 1.109375 136.230469 9.96875 141.765625 14.398438 140.660156 C 63.683594 132.90625 165.027344 127.367188 191.605469 122.386719 Z M 191.605469 122.386719 "/></g></g></g><g fill="#000000" fill-opacity="1"><g transform="translate(3645.525516, 840.079396)"><g/></g></g><g fill="#000000" fill-opacity="1"><g transform="translate(3756.280741, 840.079396)"><g><path d="M 207.667969 -149.519531 C 210.988281 -160.042969 204.34375 -170.5625 194.929688 -149.519531 C 166.132812 -70.328125 103.554688 47.070312 67.007812 54.269531 C 29.902344 62.023438 104.109375 -286.855469 109.648438 -306.238281 C 143.980469 -326.730469 187.175781 -321.191406 188.839844 -312.332031 C 189.390625 -304.023438 208.21875 -298.484375 203.789062 -316.207031 C 198.253906 -337.804688 161.703125 -345.558594 111.863281 -324.511719 C 115.1875 -343.894531 121.832031 -376.015625 139.550781 -439.699219 C 148.964844 -471.820312 75.3125 -472.925781 53.164062 -428.625 C 39.316406 -400.382812 24.367188 -321.746094 23.8125 -321.746094 C -5.539062 -318.421875 -33.226562 -303.46875 -60.363281 -323.960938 C -75.867188 -335.589844 -81.960938 -321.191406 -73.652344 -313.4375 C -44.300781 -286.855469 -3.875 -299.039062 21.597656 -306.238281 C -12.738281 -108.539062 -30.457031 62.023438 51.5 68.667969 C 111.863281 73.652344 182.191406 -68.113281 207.667969 -149.519531 Z M 207.667969 -149.519531 "/></g></g></g><g fill="#000000" fill-opacity="1"><g transform="translate(3921.30604, 840.079396)"><g><path d="M 78.082031 21.042969 C 24.921875 9.414062 65.347656 -249.753906 122.386719 -269.136719 C 144.535156 -270.242188 167.792969 -231.480469 136.78125 -210.988281 C 125.707031 -203.789062 142.320312 -200.46875 147.304688 -204.898438 C 184.40625 -236.464844 158.933594 -277.441406 127.921875 -284.085938 C 49.285156 -300.703125 4.429688 -194.929688 -4.984375 -132.351562 C -16.058594 -55.929688 9.414062 28.242188 65.898438 33.78125 C 110.203125 38.210938 150.628906 -19.9375 170.007812 -87.496094 C 204.898438 -85.835938 243.660156 -109.648438 259.167969 -149.519531 C 264.152344 -156.164062 254.738281 -163.363281 247.539062 -149.519531 C 227.046875 -110.203125 198.804688 -94.695312 174.441406 -99.125 C 192.714844 -142.875 174.441406 -179.425781 161.703125 -183.855469 C 109.09375 -202.128906 101.339844 -105.21875 158.933594 -90.265625 C 140.105469 -25.472656 106.324219 23.257812 78.082031 21.042969 Z M 158.378906 -173.332031 C 172.777344 -170.5625 174.992188 -125.707031 163.917969 -100.789062 C 113.523438 -116.847656 129.03125 -178.871094 158.378906 -173.332031 Z M 158.378906 -173.332031 "/></g></g></g><g fill="#000000" fill-opacity="1"><g transform="translate(4142.26278, 840.079396)"><g><path d="M 78.082031 21.042969 C 24.921875 9.414062 65.347656 -249.753906 122.386719 -269.136719 C 144.535156 -270.242188 167.792969 -231.480469 136.78125 -210.988281 C 125.707031 -203.789062 142.320312 -200.46875 147.304688 -204.898438 C 184.40625 -236.464844 158.933594 -277.441406 127.921875 -284.085938 C 49.285156 -300.703125 4.429688 -194.929688 -4.984375 -132.351562 C -16.058594 -55.929688 9.414062 28.242188 65.898438 33.78125 C 110.203125 38.210938 150.628906 -19.9375 170.007812 -87.496094 C 204.898438 -85.835938 243.660156 -109.648438 259.167969 -149.519531 C 264.152344 -156.164062 254.738281 -163.363281 247.539062 -149.519531 C 227.046875 -110.203125 198.804688 -94.695312 174.441406 -99.125 C 192.714844 -142.875 174.441406 -179.425781 161.703125 -183.855469 C 109.09375 -202.128906 101.339844 -105.21875 158.933594 -90.265625 C 140.105469 -25.472656 106.324219 23.257812 78.082031 21.042969 Z M 158.378906 -173.332031 C 172.777344 -170.5625 174.992188 -125.707031 163.917969 -100.789062 C 113.523438 -116.847656 129.03125 -178.871094 158.378906 -173.332031 Z M 158.378906 -173.332031 "/></g></g></g><g fill="#000000" fill-opacity="1"><g transform="translate(4363.21952, 840.079396)"><g><path d="M 179.425781 -149.519531 C 182.746094 -160.042969 173.886719 -169.457031 166.6875 -149.519531 C 136.230469 -59.808594 91.925781 18.273438 65.347656 14.953125 C 48.730469 12.738281 60.914062 -79.191406 79.742188 -191.054688 C 198.253906 -313.4375 226.496094 -490.09375 160.59375 -495.628906 C 52.609375 -505.046875 1.660156 -321.746094 -2.769531 -159.488281 C -3.875 -110.203125 -8.859375 32.117188 64.238281 27.136719 C 102.449219 24.367188 150.074219 -64.792969 179.425781 -149.519531 Z M 81.960938 -210.433594 C 93.589844 -311.222656 137.335938 -483.449219 161.703125 -484.554688 C 206.558594 -486.769531 186.621094 -326.175781 81.960938 -210.433594 Z M 81.960938 -210.433594 "/></g></g></g><g fill="#000000" fill-opacity="1"><g transform="translate(1755.044967, 1214.89327)"><g><path d="M 14.84375 -69.21875 L 3.953125 -69.21875 L 14.84375 -97.96875 L 22.75 -97.96875 Z M 33.375 -69.21875 L 22.484375 -69.21875 L 33.375 -97.96875 L 41.28125 -97.96875 Z M 33.375 -69.21875 "/></g></g></g><g fill="#000000" fill-opacity="1"><g transform="translate(1807.226108, 1214.89327)"><g><path d="M 2.3125 -85.96875 L 2.3125 -95.375 L 81.75 -95.375 L 81.75 -85.96875 L 47.28125 -85.96875 L 47.28125 0 L 36.78125 0 L 36.78125 -85.96875 Z M 2.3125 -85.96875 "/></g></g></g><g fill="#000000" fill-opacity="1"><g transform="translate(1898.100051, 1214.89327)"><g><path d="M 87.34375 -40.328125 C 87.34375 -27.609375 83.773438 -17.457031 76.640625 -9.875 C 69.503906 -2.289062 59.941406 1.5 47.953125 1.5 C 35.878906 1.5 26.296875 -2.269531 19.203125 -9.8125 C 12.117188 -17.351562 8.578125 -27.523438 8.578125 -40.328125 L 8.578125 -95.375 L 19.078125 -95.375 L 19.078125 -40.328125 C 19.078125 -30.609375 21.707031 -22.816406 26.96875 -16.953125 C 32.238281 -11.097656 39.234375 -8.171875 47.953125 -8.171875 C 56.679688 -8.171875 63.675781 -11.097656 68.9375 -16.953125 C 74.207031 -22.816406 76.84375 -30.609375 76.84375 -40.328125 L 76.84375 -95.375 L 87.34375 -95.375 Z M 87.34375 -40.328125 "/></g></g></g><g fill="#000000" fill-opacity="1"><g transform="translate(2000.827075, 1214.89327)"><g><path d="M 10.484375 0 L 10.484375 -95.375 L 51.359375 -95.375 C 60.628906 -95.375 68.125 -92.851562 73.84375 -87.8125 C 79.570312 -82.769531 82.4375 -76.160156 82.4375 -67.984375 C 82.4375 -61.722656 80.59375 -56.320312 76.90625 -51.78125 C 73.226562 -47.238281 68.300781 -44.101562 62.125 -42.375 L 83.515625 0 L 71.9375 0 L 51.5 -41.015625 L 20.984375 -41.015625 L 20.984375 0 Z M 50.6875 -85.96875 L 20.984375 -85.96875 L 20.984375 -49.875 L 50.6875 -49.875 C 57.039062 -49.875 62.171875 -51.53125 66.078125 -54.84375 C 69.984375 -58.15625 71.9375 -62.535156 71.9375 -67.984375 C 71.9375 -73.429688 69.984375 -77.789062 66.078125 -81.0625 C 62.171875 -84.332031 57.039062 -85.96875 50.6875 -85.96875 Z M 50.6875 -85.96875 "/></g></g></g><g fill="#000000" fill-opacity="1"><g transform="translate(2095.515803, 1214.89327)"><g><path d="M 10.484375 -95.375 L 20.984375 -95.375 L 78.34375 -17.984375 L 78.34375 -95.375 L 88.296875 -95.375 L 88.296875 0 L 79.03125 0 L 20.4375 -79.4375 L 20.4375 0 L 10.484375 0 Z M 10.484375 -95.375 "/></g></g></g><g fill="#000000" fill-opacity="1"><g transform="translate(2201.103907, 1214.89327)"><g><path d="M 10.484375 0 L 10.484375 -95.375 L 20.984375 -95.375 L 20.984375 0 Z M 10.484375 0 "/></g></g></g><g fill="#000000" fill-opacity="1"><g transform="translate(2239.388327, 1214.89327)"><g><path d="M 10.484375 -95.375 L 20.984375 -95.375 L 78.34375 -17.984375 L 78.34375 -95.375 L 88.296875 -95.375 L 88.296875 0 L 79.03125 0 L 20.4375 -79.4375 L 20.4375 0 L 10.484375 0 Z M 10.484375 -95.375 "/></g></g></g><g fill="#000000" fill-opacity="1"><g transform="translate(2344.976453, 1214.89327)"><g><path d="M 101.640625 -45.640625 C 101.640625 -39.015625 100.457031 -32.816406 98.09375 -27.046875 C 95.738281 -21.273438 92.46875 -16.300781 88.28125 -12.125 C 84.101562 -7.945312 79.195312 -4.628906 73.5625 -2.171875 C 67.9375 0.273438 61.851562 1.5 55.3125 1.5 C 48.5 1.5 42.070312 0.207031 36.03125 -2.375 C 30 -4.96875 24.78125 -8.46875 20.375 -12.875 C 15.96875 -17.28125 12.46875 -22.476562 9.875 -28.46875 C 7.289062 -34.46875 6 -40.875 6 -47.6875 C 6 -54.5 7.269531 -60.898438 9.8125 -66.890625 C 12.351562 -72.890625 15.828125 -78.09375 20.234375 -82.5 C 24.640625 -86.90625 29.863281 -90.398438 35.90625 -92.984375 C 41.945312 -95.578125 48.375 -96.875 55.1875 -96.875 C 62.539062 -96.875 69.488281 -95.488281 76.03125 -92.71875 C 82.570312 -89.945312 88.15625 -86.109375 92.78125 -81.203125 L 85.703125 -73.984375 C 82.066406 -78.160156 77.523438 -81.40625 72.078125 -83.71875 C 66.628906 -86.039062 61 -87.203125 55.1875 -87.203125 C 49.726562 -87.203125 44.640625 -86.175781 39.921875 -84.125 C 35.203125 -82.082031 31.140625 -79.3125 27.734375 -75.8125 C 24.328125 -72.320312 21.625 -68.144531 19.625 -63.28125 C 17.625 -58.425781 16.625 -53.226562 16.625 -47.6875 C 16.625 -42.144531 17.625 -36.941406 19.625 -32.078125 C 21.625 -27.222656 24.328125 -23.046875 27.734375 -19.546875 C 31.140625 -16.054688 35.203125 -13.285156 39.921875 -11.234375 C 44.640625 -9.191406 49.726562 -8.171875 55.1875 -8.171875 C 60 -8.171875 64.515625 -8.988281 68.734375 -10.625 C 72.960938 -12.257812 76.640625 -14.503906 79.765625 -17.359375 C 82.898438 -20.222656 85.46875 -23.65625 87.46875 -27.65625 C 89.46875 -31.65625 90.648438 -35.972656 91.015625 -40.609375 L 56.8125 -40.609375 L 56.8125 -49.875 L 101.640625 -49.875 Z M 101.640625 -45.640625 "/></g></g></g><g fill="#000000" fill-opacity="1"><g transform="translate(2459.147831, 1214.89327)"><g/></g></g><g fill="#000000" fill-opacity="1"><g transform="translate(2495.252381, 1214.89327)"><g><path d="M 10.484375 0 L 10.484375 -95.375 L 20.984375 -95.375 L 20.984375 0 Z M 10.484375 0 "/></g></g></g><g fill="#000000" fill-opacity="1"><g transform="translate(2533.536847, 1214.89327)"><g><path d="M 10.484375 0 L 10.484375 -95.375 L 41.96875 -95.375 C 49.144531 -95.375 55.820312 -94.171875 62 -91.765625 C 68.175781 -89.359375 73.488281 -86.066406 77.9375 -81.890625 C 82.382812 -77.710938 85.859375 -72.691406 88.359375 -66.828125 C 90.859375 -60.972656 92.109375 -54.59375 92.109375 -47.6875 C 92.109375 -40.78125 90.859375 -34.394531 88.359375 -28.53125 C 85.859375 -22.675781 82.40625 -17.660156 78 -13.484375 C 73.59375 -9.304688 68.300781 -6.015625 62.125 -3.609375 C 55.945312 -1.203125 49.226562 0 41.96875 0 Z M 42.515625 -85.84375 L 20.984375 -85.84375 L 20.984375 -9.53125 L 42.515625 -9.53125 C 47.960938 -9.53125 53.09375 -10.503906 57.90625 -12.453125 C 62.71875 -14.410156 66.847656 -17.09375 70.296875 -20.5 C 73.753906 -23.90625 76.484375 -27.945312 78.484375 -32.625 C 80.484375 -37.3125 81.484375 -42.332031 81.484375 -47.6875 C 81.484375 -53.039062 80.484375 -58.054688 78.484375 -62.734375 C 76.484375 -67.421875 73.753906 -71.46875 70.296875 -74.875 C 66.847656 -78.28125 62.71875 -80.957031 57.90625 -82.90625 C 53.09375 -84.863281 47.960938 -85.84375 42.515625 -85.84375 Z M 42.515625 -85.84375 "/></g></g></g><g fill="#000000" fill-opacity="1"><g transform="translate(2638.44373, 1214.89327)"><g><path d="M 10.484375 0 L 10.484375 -95.375 L 78.75 -95.375 L 78.75 -86.109375 L 20.984375 -86.109375 L 20.984375 -52.734375 L 58.71875 -52.734375 L 58.71875 -43.59375 L 20.984375 -43.59375 L 20.984375 -9.265625 L 79.296875 -9.265625 L 79.296875 0 Z M 10.484375 0 "/></g></g></g><g fill="#000000" fill-opacity="1"><g transform="translate(2729.181454, 1214.89327)"><g><path d="M 0.546875 0 L 40.1875 -95.375 L 52.859375 -95.375 L 91.96875 0 L 80.53125 0 L 68.53125 -29.96875 L 23.578125 -29.96875 L 11.4375 0 Z M 27.25 -38.96875 L 64.859375 -38.96875 L 46.1875 -85.5625 Z M 27.25 -38.96875 "/></g></g></g><g fill="#000000" fill-opacity="1"><g transform="translate(2828.502431, 1214.89327)"><g><path d="M 1.5 -16.34375 L 8.453125 -23.578125 C 13.359375 -18.398438 18.601562 -14.46875 24.1875 -11.78125 C 29.769531 -9.101562 35.648438 -7.765625 41.828125 -7.765625 C 49.273438 -7.765625 55.40625 -9.535156 60.21875 -13.078125 C 65.03125 -16.617188 67.4375 -21.113281 67.4375 -26.5625 C 67.4375 -31.46875 65.734375 -35.238281 62.328125 -37.875 C 58.921875 -40.507812 53.3125 -42.460938 45.5 -43.734375 L 31.75 -45.921875 C 22.570312 -47.367188 15.800781 -50.066406 11.4375 -54.015625 C 7.082031 -57.972656 4.90625 -63.3125 4.90625 -70.03125 C 4.90625 -77.9375 7.992188 -84.335938 14.171875 -89.234375 C 20.347656 -94.140625 28.429688 -96.59375 38.421875 -96.59375 C 45.054688 -96.59375 51.640625 -95.503906 58.171875 -93.328125 C 64.710938 -91.148438 70.664062 -88.019531 76.03125 -83.9375 L 70.03125 -75.75 C 64.851562 -79.65625 59.582031 -82.609375 54.21875 -84.609375 C 48.863281 -86.609375 43.460938 -87.609375 38.015625 -87.609375 C 31.203125 -87.609375 25.679688 -86.039062 21.453125 -82.90625 C 17.234375 -79.769531 15.125 -75.75 15.125 -70.84375 C 15.125 -66.394531 16.617188 -62.988281 19.609375 -60.625 C 22.609375 -58.269531 27.5625 -56.546875 34.46875 -55.453125 L 48.09375 -53.28125 C 58.445312 -51.550781 66.007812 -48.597656 70.78125 -44.421875 C 75.550781 -40.242188 77.9375 -34.472656 77.9375 -27.109375 C 77.9375 -22.929688 77.050781 -19.09375 75.28125 -15.59375 C 73.507812 -12.101562 71.007812 -9.109375 67.78125 -6.609375 C 64.5625 -4.109375 60.703125 -2.15625 56.203125 -0.75 C 51.703125 0.65625 46.773438 1.359375 41.421875 1.359375 C 33.878906 1.359375 26.632812 -0.160156 19.6875 -3.203125 C 12.738281 -6.242188 6.675781 -10.625 1.5 -16.34375 Z M 1.5 -16.34375 "/></g></g></g><g fill="#000000" fill-opacity="1"><g transform="translate(2917.060285, 1214.89327)"><g/></g></g><g fill="#000000" fill-opacity="1"><g transform="translate(2953.164835, 1214.89327)"><g><path d="M 10.484375 0 L 10.484375 -95.375 L 20.984375 -95.375 L 20.984375 0 Z M 10.484375 0 "/></g></g></g><g fill="#000000" fill-opacity="1"><g transform="translate(2991.449255, 1214.89327)"><g><path d="M 10.484375 -95.375 L 20.984375 -95.375 L 78.34375 -17.984375 L 78.34375 -95.375 L 88.296875 -95.375 L 88.296875 0 L 79.03125 0 L 20.4375 -79.4375 L 20.4375 0 L 10.484375 0 Z M 10.484375 -95.375 "/></g></g></g><g fill="#000000" fill-opacity="1"><g transform="translate(3097.037382, 1214.89327)"><g><path d="M 2.3125 -85.96875 L 2.3125 -95.375 L 81.75 -95.375 L 81.75 -85.96875 L 47.28125 -85.96875 L 47.28125 0 L 36.78125 0 L 36.78125 -85.96875 Z M 2.3125 -85.96875 "/></g></g></g><g fill="#000000" fill-opacity="1"><g transform="translate(3187.911337, 1214.89327)"><g><path d="M 104.234375 -47.6875 C 104.234375 -40.875 102.957031 -34.445312 100.40625 -28.40625 C 97.863281 -22.363281 94.390625 -17.140625 89.984375 -12.734375 C 85.585938 -8.328125 80.390625 -4.851562 74.390625 -2.3125 C 68.398438 0.226562 62 1.5 55.1875 1.5 C 48.375 1.5 41.945312 0.226562 35.90625 -2.3125 C 29.863281 -4.851562 24.640625 -8.328125 20.234375 -12.734375 C 15.828125 -17.140625 12.351562 -22.363281 9.8125 -28.40625 C 7.269531 -34.445312 6 -40.875 6 -47.6875 C 6 -54.5 7.269531 -60.925781 9.8125 -66.96875 C 12.351562 -73.007812 15.828125 -78.234375 20.234375 -82.640625 C 24.640625 -87.046875 29.863281 -90.519531 35.90625 -93.0625 C 41.945312 -95.601562 48.375 -96.875 55.1875 -96.875 C 62 -96.875 68.398438 -95.601562 74.390625 -93.0625 C 80.390625 -90.519531 85.585938 -87.046875 89.984375 -82.640625 C 94.390625 -78.234375 97.863281 -73.007812 100.40625 -66.96875 C 102.957031 -60.925781 104.234375 -54.5 104.234375 -47.6875 Z M 93.609375 -47.6875 C 93.609375 -53.226562 92.609375 -58.425781 90.609375 -63.28125 C 88.609375 -68.144531 85.90625 -72.320312 82.5 -75.8125 C 79.09375 -79.3125 75.023438 -82.082031 70.296875 -84.125 C 65.578125 -86.175781 60.539062 -87.203125 55.1875 -87.203125 C 49.726562 -87.203125 44.640625 -86.175781 39.921875 -84.125 C 35.203125 -82.082031 31.140625 -79.3125 27.734375 -75.8125 C 24.328125 -72.320312 21.625 -68.144531 19.625 -63.28125 C 17.625 -58.425781 16.625 -53.226562 16.625 -47.6875 C 16.625 -42.144531 17.625 -36.96875 19.625 -32.15625 C 21.625 -27.34375 24.328125 -23.164062 27.734375 -19.625 C 31.140625 -16.082031 35.203125 -13.285156 39.921875 -11.234375 C 44.640625 -9.191406 49.726562 -8.171875 55.1875 -8.171875 C 60.539062 -8.171875 65.578125 -9.191406 70.296875 -11.234375 C 75.023438 -13.285156 79.09375 -16.082031 82.5 -19.625 C 85.90625 -23.164062 88.609375 -27.34375 90.609375 -32.15625 C 92.609375 -36.96875 93.609375 -42.144531 93.609375 -47.6875 Z M 93.609375 -47.6875 "/></g></g></g><g fill="#000000" fill-opacity="1"><g transform="translate(3304.943828, 1214.89327)"><g/></g></g><g fill="#000000" fill-opacity="1"><g transform="translate(3341.048378, 1214.89327)"><g><path d="M 0.546875 0 L 40.1875 -95.375 L 52.859375 -95.375 L 91.96875 0 L 80.53125 0 L 68.53125 -29.96875 L 23.578125 -29.96875 L 11.4375 0 Z M 27.25 -38.96875 L 64.859375 -38.96875 L 46.1875 -85.5625 Z M 27.25 -38.96875 "/></g></g></g><g fill="#000000" fill-opacity="1"><g transform="translate(3440.369355, 1214.89327)"><g><path d="M 55.71875 -8.171875 C 61.625 -8.171875 67.253906 -9.328125 72.609375 -11.640625 C 77.972656 -13.960938 82.472656 -17.164062 86.109375 -21.25 L 92.921875 -14.171875 C 88.203125 -9.265625 82.570312 -5.425781 76.03125 -2.65625 C 69.488281 0.113281 62.628906 1.5 55.453125 1.5 C 48.546875 1.5 42.070312 0.226562 36.03125 -2.3125 C 30 -4.851562 24.753906 -8.328125 20.296875 -12.734375 C 15.847656 -17.140625 12.351562 -22.363281 9.8125 -28.40625 C 7.269531 -34.445312 6 -40.875 6 -47.6875 C 6 -54.5 7.269531 -60.925781 9.8125 -66.96875 C 12.351562 -73.007812 15.847656 -78.234375 20.296875 -82.640625 C 24.753906 -87.046875 30 -90.519531 36.03125 -93.0625 C 42.070312 -95.601562 48.546875 -96.875 55.453125 -96.875 C 62.804688 -96.875 69.773438 -95.488281 76.359375 -92.71875 C 82.953125 -89.945312 88.5625 -86.109375 93.1875 -81.203125 L 86.25 -73.84375 C 82.519531 -78.019531 77.90625 -81.289062 72.40625 -83.65625 C 66.914062 -86.019531 61.265625 -87.203125 55.453125 -87.203125 C 50.003906 -87.203125 44.894531 -86.175781 40.125 -84.125 C 35.351562 -82.082031 31.242188 -79.3125 27.796875 -75.8125 C 24.347656 -72.320312 21.625 -68.144531 19.625 -63.28125 C 17.625 -58.425781 16.625 -53.226562 16.625 -47.6875 C 16.625 -42.144531 17.625 -36.941406 19.625 -32.078125 C 21.625 -27.222656 24.367188 -23.046875 27.859375 -19.546875 C 31.359375 -16.054688 35.492188 -13.285156 40.265625 -11.234375 C 45.035156 -9.191406 50.1875 -8.171875 55.71875 -8.171875 Z M 55.71875 -8.171875 "/></g></g></g><g fill="#000000" fill-opacity="1"><g transform="translate(3545.54879, 1214.89327)"><g><path d="M 10.484375 0 L 10.484375 -95.375 L 20.984375 -95.375 L 20.984375 -52.734375 L 76.4375 -52.734375 L 76.4375 -95.375 L 86.921875 -95.375 L 86.921875 0 L 76.4375 0 L 76.4375 -43.328125 L 20.984375 -43.328125 L 20.984375 0 Z M 10.484375 0 "/></g></g></g><g fill="#000000" fill-opacity="1"><g transform="translate(3649.774428, 1214.89327)"><g><path d="M 10.484375 0 L 10.484375 -95.375 L 20.984375 -95.375 L 20.984375 0 Z M 10.484375 0 "/></g></g></g><g fill="#000000" fill-opacity="1"><g transform="translate(3688.058848, 1214.89327)"><g><path d="M 10.484375 0 L 10.484375 -95.375 L 78.75 -95.375 L 78.75 -86.109375 L 20.984375 -86.109375 L 20.984375 -52.734375 L 58.71875 -52.734375 L 58.71875 -43.59375 L 20.984375 -43.59375 L 20.984375 -9.265625 L 79.296875 -9.265625 L 79.296875 0 Z M 10.484375 0 "/></g></g></g><g fill="#000000" fill-opacity="1"><g transform="translate(3778.796573, 1214.89327)"><g><path d="M 39.65625 0 L 0.546875 -95.375 L 11.859375 -95.375 L 46.328125 -9.8125 L 81.34375 -95.375 L 91.96875 -95.375 L 52.3125 0 Z M 39.65625 0 "/></g></g></g><g fill="#000000" fill-opacity="1"><g transform="translate(3878.11755, 1214.89327)"><g><path d="M 10.484375 0 L 10.484375 -95.375 L 78.75 -95.375 L 78.75 -86.109375 L 20.984375 -86.109375 L 20.984375 -52.734375 L 58.71875 -52.734375 L 58.71875 -43.59375 L 20.984375 -43.59375 L 20.984375 -9.265625 L 79.296875 -9.265625 L 79.296875 0 Z M 10.484375 0 "/></g></g></g><g fill="#000000" fill-opacity="1"><g transform="translate(3968.855275, 1214.89327)"><g><path d="M 57.640625 -6.8125 L 20.296875 -83.25 L 20.296875 0 L 10.484375 0 L 10.484375 -95.375 L 25.203125 -95.375 L 57.765625 -27.65625 L 90.203125 -95.375 L 104.90625 -95.375 L 104.90625 0 L 94.96875 0 L 94.96875 -83.390625 Z M 57.640625 -6.8125 "/></g></g></g><g fill="#000000" fill-opacity="1"><g transform="translate(4091.064981, 1214.89327)"><g><path d="M 10.484375 0 L 10.484375 -95.375 L 78.75 -95.375 L 78.75 -86.109375 L 20.984375 -86.109375 L 20.984375 -52.734375 L 58.71875 -52.734375 L 58.71875 -43.59375 L 20.984375 -43.59375 L 20.984375 -9.265625 L 79.296875 -9.265625 L 79.296875 0 Z M 10.484375 0 "/></g></g></g><g fill="#000000" fill-opacity="1"><g transform="translate(4181.802706, 1214.89327)"><g><path d="M 10.484375 -95.375 L 20.984375 -95.375 L 78.34375 -17.984375 L 78.34375 -95.375 L 88.296875 -95.375 L 88.296875 0 L 79.03125 0 L 20.4375 -79.4375 L 20.4375 0 L 10.484375 0 Z M 10.484375 -95.375 "/></g></g></g><g fill="#000000" fill-opacity="1"><g transform="translate(4287.390833, 1214.89327)"><g><path d="M 2.3125 -85.96875 L 2.3125 -95.375 L 81.75 -95.375 L 81.75 -85.96875 L 47.28125 -85.96875 L 47.28125 0 L 36.78125 0 L 36.78125 -85.96875 Z M 2.3125 -85.96875 "/></g></g></g><g fill="#000000" fill-opacity="1"><g transform="translate(4378.264788, 1214.89327)"><g><path d="M 1.5 -16.34375 L 8.453125 -23.578125 C 13.359375 -18.398438 18.601562 -14.46875 24.1875 -11.78125 C 29.769531 -9.101562 35.648438 -7.765625 41.828125 -7.765625 C 49.273438 -7.765625 55.40625 -9.535156 60.21875 -13.078125 C 65.03125 -16.617188 67.4375 -21.113281 67.4375 -26.5625 C 67.4375 -31.46875 65.734375 -35.238281 62.328125 -37.875 C 58.921875 -40.507812 53.3125 -42.460938 45.5 -43.734375 L 31.75 -45.921875 C 22.570312 -47.367188 15.800781 -50.066406 11.4375 -54.015625 C 7.082031 -57.972656 4.90625 -63.3125 4.90625 -70.03125 C 4.90625 -77.9375 7.992188 -84.335938 14.171875 -89.234375 C 20.347656 -94.140625 28.429688 -96.59375 38.421875 -96.59375 C 45.054688 -96.59375 51.640625 -95.503906 58.171875 -93.328125 C 64.710938 -91.148438 70.664062 -88.019531 76.03125 -83.9375 L 70.03125 -75.75 C 64.851562 -79.65625 59.582031 -82.609375 54.21875 -84.609375 C 48.863281 -86.609375 43.460938 -87.609375 38.015625 -87.609375 C 31.203125 -87.609375 25.679688 -86.039062 21.453125 -82.90625 C 17.234375 -79.769531 15.125 -75.75 15.125 -70.84375 C 15.125 -66.394531 16.617188 -62.988281 19.609375 -60.625 C 22.609375 -58.269531 27.5625 -56.546875 34.46875 -55.453125 L 48.09375 -53.28125 C 58.445312 -51.550781 66.007812 -48.597656 70.78125 -44.421875 C 75.550781 -40.242188 77.9375 -34.472656 77.9375 -27.109375 C 77.9375 -22.929688 77.050781 -19.09375 75.28125 -15.59375 C 73.507812 -12.101562 71.007812 -9.109375 67.78125 -6.609375 C 64.5625 -4.109375 60.703125 -2.15625 56.203125 -0.75 C 51.703125 0.65625 46.773438 1.359375 41.421875 1.359375 C 33.878906 1.359375 26.632812 -0.160156 19.6875 -3.203125 C 12.738281 -6.242188 6.675781 -10.625 1.5 -16.34375 Z M 1.5 -16.34375 "/></g></g></g><g fill="#000000" fill-opacity="1"><g transform="translate(4466.822642, 1214.89327)"><g><path d="M 10.359375 -10.078125 L 21.25 -10.078125 L 10.359375 18.671875 L 2.453125 18.671875 Z M 10.359375 -10.078125 "/></g></g></g><g fill="#000000" fill-opacity="1"><g transform="translate(4500.618945, 1214.89327)"><g/></g></g><g fill="#000000" fill-opacity="1"><g transform="translate(2966.517544, 1405.393255)"><g><path d="M 104.234375 -47.6875 C 104.234375 -40.875 102.957031 -34.445312 100.40625 -28.40625 C 97.863281 -22.363281 94.390625 -17.140625 89.984375 -12.734375 C 85.585938 -8.328125 80.390625 -4.851562 74.390625 -2.3125 C 68.398438 0.226562 62 1.5 55.1875 1.5 C 48.375 1.5 41.945312 0.226562 35.90625 -2.3125 C 29.863281 -4.851562 24.640625 -8.328125 20.234375 -12.734375 C 15.828125 -17.140625 12.351562 -22.363281 9.8125 -28.40625 C 7.269531 -34.445312 6 -40.875 6 -47.6875 C 6 -54.5 7.269531 -60.925781 9.8125 -66.96875 C 12.351562 -73.007812 15.828125 -78.234375 20.234375 -82.640625 C 24.640625 -87.046875 29.863281 -90.519531 35.90625 -93.0625 C 41.945312 -95.601562 48.375 -96.875 55.1875 -96.875 C 62 -96.875 68.398438 -95.601562 74.390625 -93.0625 C 80.390625 -90.519531 85.585938 -87.046875 89.984375 -82.640625 C 94.390625 -78.234375 97.863281 -73.007812 100.40625 -66.96875 C 102.957031 -60.925781 104.234375 -54.5 104.234375 -47.6875 Z M 93.609375 -47.6875 C 93.609375 -53.226562 92.609375 -58.425781 90.609375 -63.28125 C 88.609375 -68.144531 85.90625 -72.320312 82.5 -75.8125 C 79.09375 -79.3125 75.023438 -82.082031 70.296875 -84.125 C 65.578125 -86.175781 60.539062 -87.203125 55.1875 -87.203125 C 49.726562 -87.203125 44.640625 -86.175781 39.921875 -84.125 C 35.203125 -82.082031 31.140625 -79.3125 27.734375 -75.8125 C 24.328125 -72.320312 21.625 -68.144531 19.625 -63.28125 C 17.625 -58.425781 16.625 -53.226562 16.625 -47.6875 C 16.625 -42.144531 17.625 -36.96875 19.625 -32.15625 C 21.625 -27.34375 24.328125 -23.164062 27.734375 -19.625 C 31.140625 -16.082031 35.203125 -13.285156 39.921875 -11.234375 C 44.640625 -9.191406 49.726562 -8.171875 55.1875 -8.171875 C 60.539062 -8.171875 65.578125 -9.191406 70.296875 -11.234375 C 75.023438 -13.285156 79.09375 -16.082031 82.5 -19.625 C 85.90625 -23.164062 88.609375 -27.34375 90.609375 -32.15625 C 92.609375 -36.96875 93.609375 -42.144531 93.609375 -47.6875 Z M 93.609375 -47.6875 "/></g></g></g><g fill="#000000" fill-opacity="1"><g transform="translate(3083.550001, 1405.393255)"><g><path d="M 10.484375 -95.375 L 20.984375 -95.375 L 78.34375 -17.984375 L 78.34375 -95.375 L 88.296875 -95.375 L 88.296875 0 L 79.03125 0 L 20.4375 -79.4375 L 20.4375 0 L 10.484375 0 Z M 10.484375 -95.375 "/></g></g></g><g fill="#000000" fill-opacity="1"><g transform="translate(3189.138116, 1405.393255)"><g><path d="M 10.484375 0 L 10.484375 -95.375 L 78.75 -95.375 L 78.75 -86.109375 L 20.984375 -86.109375 L 20.984375 -52.734375 L 58.71875 -52.734375 L 58.71875 -43.59375 L 20.984375 -43.59375 L 20.984375 -9.265625 L 79.296875 -9.265625 L 79.296875 0 Z M 10.484375 0 "/></g></g></g><g fill="#000000" fill-opacity="1"><g transform="translate(3279.875818, 1405.393255)"><g/></g></g><g fill="#000000" fill-opacity="1"><g transform="translate(3315.980391, 1405.393255)"><g><path d="M 55.71875 -8.171875 C 61.625 -8.171875 67.253906 -9.328125 72.609375 -11.640625 C 77.972656 -13.960938 82.472656 -17.164062 86.109375 -21.25 L 92.921875 -14.171875 C 88.203125 -9.265625 82.570312 -5.425781 76.03125 -2.65625 C 69.488281 0.113281 62.628906 1.5 55.453125 1.5 C 48.546875 1.5 42.070312 0.226562 36.03125 -2.3125 C 30 -4.851562 24.753906 -8.328125 20.296875 -12.734375 C 15.847656 -17.140625 12.351562 -22.363281 9.8125 -28.40625 C 7.269531 -34.445312 6 -40.875 6 -47.6875 C 6 -54.5 7.269531 -60.925781 9.8125 -66.96875 C 12.351562 -73.007812 15.847656 -78.234375 20.296875 -82.640625 C 24.753906 -87.046875 30 -90.519531 36.03125 -93.0625 C 42.070312 -95.601562 48.546875 -96.875 55.453125 -96.875 C 62.804688 -96.875 69.773438 -95.488281 76.359375 -92.71875 C 82.953125 -89.945312 88.5625 -86.109375 93.1875 -81.203125 L 86.25 -73.84375 C 82.519531 -78.019531 77.90625 -81.289062 72.40625 -83.65625 C 66.914062 -86.019531 61.265625 -87.203125 55.453125 -87.203125 C 50.003906 -87.203125 44.894531 -86.175781 40.125 -84.125 C 35.351562 -82.082031 31.242188 -79.3125 27.796875 -75.8125 C 24.347656 -72.320312 21.625 -68.144531 19.625 -63.28125 C 17.625 -58.425781 16.625 -53.226562 16.625 -47.6875 C 16.625 -42.144531 17.625 -36.941406 19.625 -32.078125 C 21.625 -27.222656 24.367188 -23.046875 27.859375 -19.546875 C 31.359375 -16.054688 35.492188 -13.285156 40.265625 -11.234375 C 45.035156 -9.191406 50.1875 -8.171875 55.71875 -8.171875 Z M 55.71875 -8.171875 "/></g></g></g><g fill="#000000" fill-opacity="1"><g transform="translate(3421.15978, 1405.393255)"><g><path d="M 10.484375 0 L 10.484375 -95.375 L 20.984375 -95.375 L 20.984375 -9.40625 L 77.796875 -9.40625 L 77.796875 0 Z M 10.484375 0 "/></g></g></g><g fill="#000000" fill-opacity="1"><g transform="translate(3510.262556, 1405.393255)"><g><path d="M 10.484375 0 L 10.484375 -95.375 L 20.984375 -95.375 L 20.984375 0 Z M 10.484375 0 "/></g></g></g><g fill="#000000" fill-opacity="1"><g transform="translate(3548.546977, 1405.393255)"><g><path d="M 55.71875 -8.171875 C 61.625 -8.171875 67.253906 -9.328125 72.609375 -11.640625 C 77.972656 -13.960938 82.472656 -17.164062 86.109375 -21.25 L 92.921875 -14.171875 C 88.203125 -9.265625 82.570312 -5.425781 76.03125 -2.65625 C 69.488281 0.113281 62.628906 1.5 55.453125 1.5 C 48.546875 1.5 42.070312 0.226562 36.03125 -2.3125 C 30 -4.851562 24.753906 -8.328125 20.296875 -12.734375 C 15.847656 -17.140625 12.351562 -22.363281 9.8125 -28.40625 C 7.269531 -34.445312 6 -40.875 6 -47.6875 C 6 -54.5 7.269531 -60.925781 9.8125 -66.96875 C 12.351562 -73.007812 15.847656 -78.234375 20.296875 -82.640625 C 24.753906 -87.046875 30 -90.519531 36.03125 -93.0625 C 42.070312 -95.601562 48.546875 -96.875 55.453125 -96.875 C 62.804688 -96.875 69.773438 -95.488281 76.359375 -92.71875 C 82.953125 -89.945312 88.5625 -86.109375 93.1875 -81.203125 L 86.25 -73.84375 C 82.519531 -78.019531 77.90625 -81.289062 72.40625 -83.65625 C 66.914062 -86.019531 61.265625 -87.203125 55.453125 -87.203125 C 50.003906 -87.203125 44.894531 -86.175781 40.125 -84.125 C 35.351562 -82.082031 31.242188 -79.3125 27.796875 -75.8125 C 24.347656 -72.320312 21.625 -68.144531 19.625 -63.28125 C 17.625 -58.425781 16.625 -53.226562 16.625 -47.6875 C 16.625 -42.144531 17.625 -36.941406 19.625 -32.078125 C 21.625 -27.222656 24.367188 -23.046875 27.859375 -19.546875 C 31.359375 -16.054688 35.492188 -13.285156 40.265625 -11.234375 C 45.035156 -9.191406 50.1875 -8.171875 55.71875 -8.171875 Z M 55.71875 -8.171875 "/></g></g></g><g fill="#000000" fill-opacity="1"><g transform="translate(3653.726366, 1405.393255)"><g><path d="M 10.484375 0 L 10.484375 -95.375 L 20.984375 -95.375 L 20.984375 -50.140625 L 70.3125 -95.375 L 84.0625 -95.375 L 32.296875 -48.640625 L 85.15625 0 L 70.4375 0 L 20.984375 -45.78125 L 20.984375 0 Z M 10.484375 0 "/></g></g></g><g fill="#000000" fill-opacity="1"><g transform="translate(3744.600275, 1405.393255)"><g/></g></g><g fill="#000000" fill-opacity="1"><g transform="translate(3780.704825, 1405.393255)"><g><path d="M 0.546875 0 L 40.1875 -95.375 L 52.859375 -95.375 L 91.96875 0 L 80.53125 0 L 68.53125 -29.96875 L 23.578125 -29.96875 L 11.4375 0 Z M 27.25 -38.96875 L 64.859375 -38.96875 L 46.1875 -85.5625 Z M 27.25 -38.96875 "/></g></g></g><g fill="#000000" fill-opacity="1"><g transform="translate(3880.025801, 1405.393255)"><g><path d="M 2.3125 -85.96875 L 2.3125 -95.375 L 81.75 -95.375 L 81.75 -85.96875 L 47.28125 -85.96875 L 47.28125 0 L 36.78125 0 L 36.78125 -85.96875 Z M 2.3125 -85.96875 "/></g></g></g><g fill="#000000" fill-opacity="1"><g transform="translate(3970.899756, 1405.393255)"><g/></g></g><g fill="#000000" fill-opacity="1"><g transform="translate(4007.004306, 1405.393255)"><g><path d="M 0.546875 0 L 40.1875 -95.375 L 52.859375 -95.375 L 91.96875 0 L 80.53125 0 L 68.53125 -29.96875 L 23.578125 -29.96875 L 11.4375 0 Z M 27.25 -38.96875 L 64.859375 -38.96875 L 46.1875 -85.5625 Z M 27.25 -38.96875 "/></g></g></g><g fill="#000000" fill-opacity="1"><g transform="translate(4106.325283, 1405.393255)"><g/></g></g><g fill="#000000" fill-opacity="1"><g transform="translate(4142.429833, 1405.393255)"><g><path d="M 2.3125 -85.96875 L 2.3125 -95.375 L 81.75 -95.375 L 81.75 -85.96875 L 47.28125 -85.96875 L 47.28125 0 L 36.78125 0 L 36.78125 -85.96875 Z M 2.3125 -85.96875 "/></g></g></g><g fill="#000000" fill-opacity="1"><g transform="translate(4233.303788, 1405.393255)"><g><path d="M 10.484375 0 L 10.484375 -95.375 L 20.984375 -95.375 L 20.984375 0 Z M 10.484375 0 "/></g></g></g><g fill="#000000" fill-opacity="1"><g transform="translate(4271.588208, 1405.393255)"><g><path d="M 57.640625 -6.8125 L 20.296875 -83.25 L 20.296875 0 L 10.484375 0 L 10.484375 -95.375 L 25.203125 -95.375 L 57.765625 -27.65625 L 90.203125 -95.375 L 104.90625 -95.375 L 104.90625 0 L 94.96875 0 L 94.96875 -83.390625 Z M 57.640625 -6.8125 "/></g></g></g><g fill="#000000" fill-opacity="1"><g transform="translate(4393.797824, 1405.393255)"><g><path d="M 10.484375 0 L 10.484375 -95.375 L 78.75 -95.375 L 78.75 -86.109375 L 20.984375 -86.109375 L 20.984375 -52.734375 L 58.71875 -52.734375 L 58.71875 -43.59375 L 20.984375 -43.59375 L 20.984375 -9.265625 L 79.296875 -9.265625 L 79.296875 0 Z M 10.484375 0 "/></g></g></g><g fill="#000000" fill-opacity="1"><g transform="translate(4484.535548, 1405.393255)"><g><path d="M 6 -69.21875 Z M 32.4375 -97.953125 L 43.328125 -97.953125 L 32.4375 -69.203125 L 24.53125 -69.203125 Z M 13.90625 -97.953125 L 24.796875 -97.953125 L 13.90625 -69.203125 L 6 -69.203125 Z M 13.90625 -97.953125 "/></g></g></g></svg>